<?xml version="1.0" encoding="UTF-8"?>
<svg version="1.1" xmlns="http://www.w3.org/2000/svg" width="2048" height="2048">
<path d="M0 0 C6.74235885 1.08574256 13.53498189 1.74282434 20.32290649 2.47070312 C43.6278283 4.9903217 66.40860514 9.22369717 89.26171875 14.43359375 C94.90376438 15.71373614 100.56295466 16.86718897 106.2421875 17.96875 C116.38517375 19.95045505 126.41285055 22.27232563 136.30859375 25.2734375 C139.85183114 26.34760283 143.40412046 27.35825192 146.98046875 28.31640625 C164.93926866 33.14776778 182.54645787 38.91324216 199.9453125 45.48828125 C203.52157965 46.83131664 207.12366062 48.05728042 210.7421875 49.28125 C219.14270795 52.18867247 227.34796105 55.56163557 235.5546875 58.96875 C236.18047699 59.22832489 236.80626648 59.48789978 237.45101929 59.75534058 C244.52684338 62.69520338 251.57122054 65.69089 258.5546875 68.84375 C259.78856201 69.39603271 259.78856201 69.39603271 261.04736328 69.95947266 C272.27489741 74.98992368 283.40251773 80.1497453 294.36279297 85.73828125 C296.86671487 87.00111912 299.3835768 88.23579337 301.90234375 89.46875 C311.61494878 94.23859387 321.09202374 99.15407907 330.29296875 104.8515625 C333.29365678 106.68431807 336.32684598 108.37925438 339.4296875 110.03125 C343.60202023 112.26554652 347.49118102 114.75079936 351.39453125 117.421875 C353.46535586 118.78494943 355.55956834 119.98253951 357.7421875 121.15625 C365.96123664 125.62499874 373.81645962 130.85056637 381.4296875 136.28125 C385.68936209 139.31784971 390.09758686 142.04919617 394.5546875 144.78125 C399.98466828 148.12663476 405.03931247 151.63157904 409.9453125 155.72265625 C413.16865971 158.3428322 416.50656562 160.77873638 419.8671875 163.21875 C435.81688792 174.84570892 451.05575583 187.26837535 466.07617188 200.06860352 C469.35184196 202.85261092 472.68056211 205.55522834 476.0546875 208.21875 C479.45466513 210.91131293 482.52719431 213.73215978 485.5546875 216.84375 C486.5446875 217.66875 487.5346875 218.49375 488.5546875 219.34375 C491.40388895 221.71808454 493.95074775 224.20539694 496.5546875 226.84375 C498.40743637 228.72015098 500.26162957 230.59512683 502.1171875 232.46875 C502.58576172 232.94570313 503.05433594 233.42265625 503.53710938 233.9140625 C505.57005369 235.96122321 507.56274573 237.84964233 509.89453125 239.5546875 C510.71630859 240.19277344 510.71630859 240.19277344 511.5546875 240.84375 C511.5546875 241.50375 511.5546875 242.16375 511.5546875 242.84375 C512.10769531 243.07320312 512.66070313 243.30265625 513.23046875 243.5390625 C521.57573467 248.22363194 528.04784897 257.4481717 533.484375 265.1171875 C535.64564826 267.96354361 537.97944569 270.36973625 540.5546875 272.84375 C545.10417522 277.31295265 549.50172686 281.82729134 553.65625 286.66796875 C555.82213755 289.15027198 558.06345707 291.55430145 560.3046875 293.96875 C564.65258165 298.72632415 568.64134061 303.68590972 572.58227539 308.78271484 C575.78335014 312.90869611 579.14259821 316.83060353 582.65234375 320.69921875 C587.73600147 326.43007725 592.38983478 332.53803938 596.953125 338.6875 C598.11771572 340.25543677 599.29072953 341.81712804 600.46875 343.375 C612.85190289 359.76579146 624.69676097 376.46445271 635.6484375 393.84765625 C637.13226636 396.17982169 638.63267562 398.49727529 640.1484375 400.80859375 C645.51987543 409.00956174 650.63964484 417.25588379 655.41796875 425.81933594 C657.23463141 429.05468104 659.08377099 432.27134015 660.92895508 435.49047852 C662.99584077 439.0977638 665.05542165 442.70919509 667.11474609 446.32080078 C668.022431 447.91117307 668.93142894 449.50079736 669.84228516 451.08935547 C677.77052117 464.91782405 684.84606778 479.07471746 691.50195312 493.55859375 C692.73719643 496.23991967 693.98224061 498.91662547 695.2265625 501.59375 C699.81633183 511.5009922 704.30105577 521.39293771 708.23828125 531.578125 C709.50737277 534.72637579 710.93452775 537.7351112 712.4296875 540.78125 C715.77313827 547.86971482 718.10201169 555.24763024 720.51855469 562.69384766 C722.55305914 568.93409368 724.73263558 575.06656703 727.1796875 581.15625 C733.19930787 596.24421359 737.50181336 611.89610266 741.89501953 627.51806641 C742.77873164 630.63362583 743.70181532 633.7373665 744.6171875 636.84375 C747.24837268 646.10122603 749.401762 655.46591084 751.5546875 664.84375 C751.8679098 666.19826335 752.18122897 667.5527543 752.49462891 668.90722656 C756.66439914 686.96794952 760.48605027 704.95355828 763.14941406 723.30908203 C763.54452414 725.78018611 764.0373819 728.20983496 764.5625 730.65625 C765.86032937 736.95662166 766.42818095 743.32287539 767.0546875 749.71875 C768.02190658 759.60850794 768.02190658 759.60850794 769.55078125 769.421875 C770.96177128 777.52399185 771.39329416 785.71525428 771.93237305 793.91210938 C772.11456075 796.67885943 772.30550831 799.44489055 772.49804688 802.2109375 C773.83376806 821.69490542 774.81004422 841.1859116 774.8671875 860.71875 C774.87013824 861.63343048 774.87308899 862.54811096 774.87612915 863.49050903 C774.8888563 881.42230513 773.9882684 899.28712038 772.87307358 917.17734528 C772.74404925 919.25132356 772.61758273 921.32544652 772.49136353 923.39959717 C771.53685804 938.93032112 770.18756696 954.29244041 767.87185669 969.68081665 C767.45348134 972.53392478 767.10877573 975.39298061 766.78125 978.2578125 C764.05072224 1002.01803951 759.40155557 1025.38058647 754.24365234 1048.72070312 C753.60646294 1051.60905426 752.97903451 1054.49930738 752.35546875 1057.390625 C752.00556719 1059.00007806 751.65533493 1060.60945928 751.3046875 1062.21875 C751.15378662 1062.9195166 751.00288574 1063.6202832 750.84741211 1064.34228516 C750.22190108 1067.17488103 749.53008908 1069.91533613 748.58691406 1072.66015625 C747.54676525 1075.86818381 746.83829047 1079.01422245 746.1796875 1082.3203125 C744.62794464 1089.72406564 742.67600041 1096.95980843 740.5546875 1104.21875 C740.3658197 1104.8688504 740.1769519 1105.51895081 739.98236084 1106.18875122 C734.60258731 1124.646805 728.34894688 1142.8601317 721.5546875 1160.84375 C720.82259458 1162.94690034 720.09338715 1165.0510575 719.3671875 1167.15625 C717.01952635 1173.76658289 714.36146839 1180.21439094 711.58520508 1186.65551758 C709.68185799 1191.08866016 707.90104486 1195.54622464 706.203125 1200.0625 C703.50804137 1207.12088079 700.39283187 1213.94597288 697.1796875 1220.78125 C696.59792908 1222.02565348 696.01630591 1223.27012019 695.43481445 1224.51464844 C691.60465362 1232.69380792 687.65795303 1240.79813131 683.5546875 1248.84375 C682.93819813 1250.09281106 682.3237189 1251.34286566 681.7109375 1252.59375 C677.04573164 1262.09274131 672.02036081 1271.35016043 666.828125 1280.5703125 C665.57878952 1282.80072123 664.34524042 1285.03906306 663.1171875 1287.28125 C654.44527011 1303.09525888 645.35119329 1318.5525481 634.99609375 1333.328125 C632.97164796 1336.22085196 631.04971703 1339.16052701 629.1796875 1342.15625 C621.3877789 1354.53054295 613.00766279 1366.48084148 604.03344727 1378.02368164 C600.43574117 1382.65373922 597.04588459 1387.3520805 593.82421875 1392.25390625 C593.19580078 1393.04087891 593.19580078 1393.04087891 592.5546875 1393.84375 C591.8946875 1393.84375 591.2346875 1393.84375 590.5546875 1393.84375 C590.29816406 1394.58367187 590.04164062 1395.32359375 589.77734375 1396.0859375 C588.49894209 1398.96948885 587.14359406 1400.68260889 584.9921875 1402.96875 C581.9851013 1406.24577213 579.10125581 1409.57247062 576.3046875 1413.03125 C566.54928047 1425.04049244 556.49826836 1436.90016914 545.5546875 1447.84375 C543.25191764 1450.3835697 540.96848023 1452.94018285 538.68359375 1455.49609375 C536.38572247 1458.03007658 533.97319358 1460.42524392 531.5546875 1462.84375 C529.65940558 1465.00684349 527.77622753 1467.17883099 525.91015625 1469.3671875 C523.95785684 1471.41985388 521.99842995 1473.22833198 519.85546875 1475.0703125 C515.18416246 1479.09937515 510.87755553 1483.4471129 506.5546875 1487.84375 C501.62452835 1492.85804156 496.6631769 1497.73742482 491.32714844 1502.32080078 C488.29987999 1504.92191656 485.37733098 1507.64073064 482.4375 1510.33984375 C480.5546875 1511.84375 480.5546875 1511.84375 478.5546875 1511.84375 C478.5546875 1512.50375 478.5546875 1513.16375 478.5546875 1513.84375 C477.06730515 1515.19757149 475.51038199 1516.47514886 473.9296875 1517.71875 C469.42591247 1521.31599595 465.03006771 1525.00054802 460.6796875 1528.78125 C455.21849455 1533.4996313 449.61632788 1537.96887923 443.86328125 1542.32421875 C439.65488651 1545.51124458 435.5247689 1548.79781467 431.3984375 1552.09008789 C427.89228451 1554.86631039 424.28727361 1557.37406897 420.5546875 1559.84375 C417.72623678 1561.86350538 414.92414157 1563.91926629 412.1171875 1565.96875 C398.97571026 1575.50932537 385.48258154 1584.58854855 371.4921875 1592.84375 C368.07940741 1594.86773315 364.83810738 1597.02712624 361.6171875 1599.34375 C357.50838947 1602.26048934 353.31075698 1604.69898879 348.859375 1607.05078125 C345.4353613 1608.90849081 342.07834504 1610.8588445 338.71850586 1612.8293457 C331.30960896 1617.17329817 323.8917498 1621.29524621 316.16796875 1625.0546875 C312.76464615 1626.71895485 309.42611621 1628.49372167 306.08544922 1630.27978516 C289.52506529 1639.12418274 272.66637753 1647.39061709 255.22265625 1654.34765625 C251.95517908 1655.6803972 248.79474482 1657.12474373 245.6171875 1658.65625 C239.03397062 1661.74786198 232.27766244 1664.3557959 225.4921875 1666.96875 C224.40365479 1667.38874268 223.31512207 1667.80873535 222.19360352 1668.24145508 C215.97430126 1670.61480124 209.72233304 1672.8018933 203.39624023 1674.87182617 C200.70101891 1675.79369885 198.07368231 1676.80892407 195.4375 1677.88671875 C190.50792113 1679.89997368 185.50960319 1681.56596251 180.4296875 1683.15625 C179.48738281 1683.45329834 178.54507812 1683.75034668 177.57421875 1684.05639648 C166.61650722 1687.48609523 155.59982031 1690.70834553 144.5546875 1693.84375 C143.65314941 1694.1001123 142.75161133 1694.35647461 141.82275391 1694.62060547 C100.38391025 1706.33506247 57.62961679 1715.82471449 14.62890625 1719.3828125 C10.11235568 1719.76588519 5.6324795 1720.33165079 1.1395874 1720.92697144 C-9.69795108 1722.33413486 -20.5326474 1723.29867001 -31.44140625 1723.921875 C-32.18883654 1723.96499565 -32.93626682 1724.0081163 -33.70634651 1724.05254364 C-50.18775345 1724.98151866 -66.64756261 1725.15252635 -83.15161133 1725.10449219 C-87.09113007 1725.09310865 -91.03037815 1725.09990645 -94.96988773 1725.11135292 C-125.24829907 1725.18620358 -155.34899796 1723.93036255 -185.43188477 1720.34912109 C-188.67527236 1719.96370443 -191.92033472 1719.59602243 -195.16601562 1719.23046875 C-215.44603246 1716.90637418 -235.57900152 1713.70777102 -255.6328125 1709.90625 C-256.29954987 1709.78024414 -256.96628723 1709.65423828 -257.65322876 1709.52441406 C-276.01953901 1706.04440737 -294.0272991 1701.84452776 -311.9609375 1696.56689453 C-315.86138761 1695.43156304 -319.77830788 1694.35775664 -323.6953125 1693.28125 C-326.6129533 1692.47222304 -329.52942382 1691.65906775 -332.4453125 1690.84375 C-333.10321777 1690.66021973 -333.76112305 1690.47668945 -334.43896484 1690.28759766 C-365.58563696 1681.53853246 -396.98317372 1671.04822777 -426.28515625 1657.26953125 C-429.36705568 1655.87905746 -432.46677344 1654.65353808 -435.6328125 1653.46875 C-449.17933676 1648.34611478 -462.07168278 1642.13040135 -474.828125 1635.296875 C-479.16064097 1632.97918751 -483.54064857 1630.77049492 -487.9453125 1628.59375 C-494.19979894 1625.49446621 -500.33983672 1622.22840886 -506.4453125 1618.84375 C-507.27675781 1618.39773438 -508.10820313 1617.95171875 -508.96484375 1617.4921875 C-522.46867836 1610.24425228 -535.53276841 1602.25037394 -548.48779297 1594.07177734 C-550.39476933 1592.87545768 -552.31054799 1591.69494222 -554.23046875 1590.51953125 C-565.90229199 1583.35272706 -577.18772159 1575.64127812 -588.4453125 1567.84375 C-589.67241943 1566.99466064 -589.67241943 1566.99466064 -590.92431641 1566.12841797 C-598.4557131 1560.90379478 -605.90431159 1555.64753343 -612.99609375 1549.83203125 C-615.9134153 1547.46374311 -618.89557947 1545.18496429 -621.8828125 1542.90625 C-630.93406493 1535.97270371 -639.67031029 1528.69405788 -648.29321289 1521.23730469 C-652.66857712 1517.46667548 -657.15510872 1513.8687606 -661.75 1510.3671875 C-662.58917969 1509.61308594 -662.58917969 1509.61308594 -663.4453125 1508.84375 C-663.4453125 1508.18375 -663.4453125 1507.52375 -663.4453125 1506.84375 C-663.9815625 1506.616875 -664.5178125 1506.39 -665.0703125 1506.15625 C-668.26991411 1504.38804911 -670.73568473 1502.30704797 -673.4453125 1499.84375 C-673.4453125 1499.18375 -673.4453125 1498.52375 -673.4453125 1497.84375 C-674.03441406 1497.58207031 -674.62351562 1497.32039063 -675.23046875 1497.05078125 C-677.56316684 1495.7795225 -679.04885618 1494.44144469 -680.8828125 1492.53125 C-681.49382812 1491.90347656 -682.10484375 1491.27570313 -682.734375 1490.62890625 C-683.29898437 1490.03980469 -683.86359375 1489.45070313 -684.4453125 1488.84375 C-687.48329812 1485.72365666 -690.62249812 1482.78955735 -693.8828125 1479.90625 C-698.40081178 1475.85987243 -702.75993613 1471.67290504 -707.0703125 1467.40625 C-708.0128186 1466.48307983 -708.0128186 1466.48307983 -708.97436523 1465.54125977 C-709.55516846 1464.96174561 -710.13597168 1464.38223145 -710.734375 1463.78515625 C-711.25725098 1463.26638916 -711.78012695 1462.74762207 -712.31884766 1462.21313477 C-713.4453125 1460.84375 -713.4453125 1460.84375 -713.4453125 1458.84375 C-714.033125 1458.59367187 -714.6209375 1458.34359375 -715.2265625 1458.0859375 C-717.73872352 1456.67948115 -719.11176602 1455.17734008 -720.9453125 1452.96875 C-722.86712412 1450.68737363 -724.74295632 1448.55373808 -726.8828125 1446.46875 C-728.4453125 1444.84375 -728.4453125 1444.84375 -728.4453125 1442.84375 C-729.280625 1442.534375 -729.280625 1442.534375 -730.1328125 1442.21875 C-733.41543621 1440.26691968 -735.15204496 1437.90144006 -737.4453125 1434.84375 C-737.4453125 1434.18375 -737.4453125 1433.52375 -737.4453125 1432.84375 C-738.4353125 1432.51375 -739.4253125 1432.18375 -740.4453125 1431.84375 C-742.171875 1429.91015625 -742.171875 1429.91015625 -744.0703125 1427.40625 C-746.84548516 1423.83239377 -749.68770553 1420.41740261 -752.7578125 1417.09375 C-757.90231649 1411.4516774 -762.5593745 1405.46465629 -767.22314453 1399.42578125 C-768.81017559 1397.37145419 -770.40963766 1395.32691379 -772.0078125 1393.28125 C-773.15405712 1391.80240203 -774.29984941 1390.3232034 -775.4453125 1388.84375 C-776.23808594 1387.82539062 -777.03085937 1386.80703125 -777.84765625 1385.7578125 C-792.4453125 1366.95583223 -792.4453125 1366.95583223 -792.4453125 1363.84375 C-793.1053125 1363.84375 -793.7653125 1363.84375 -794.4453125 1363.84375 C-796.03576516 1361.68746322 -797.50136463 1359.53343327 -798.9453125 1357.28125 C-799.85003316 1355.89568492 -800.75498752 1354.51027241 -801.66015625 1353.125 C-802.12276855 1352.41214844 -802.58538086 1351.69929688 -803.06201172 1350.96484375 C-804.77411774 1348.33957422 -806.51747892 1345.73620639 -808.2644043 1343.1340332 C-812.70706218 1336.51409786 -817.06197853 1329.84112351 -821.3515625 1323.12109375 C-822.67730445 1321.04591185 -824.00981139 1318.97502322 -825.3515625 1316.91015625 C-828.18532004 1312.52901795 -830.86897544 1308.13842048 -833.3203125 1303.53125 C-835.62298879 1299.20835904 -838.18481233 1295.11440436 -840.8828125 1291.03125 C-844.7277259 1285.19279747 -847.92095775 1279.20502261 -850.9375 1272.90234375 C-852.31411211 1270.10988965 -853.84190478 1267.50926155 -855.4453125 1264.84375 C-856.65329928 1262.49752163 -857.84030887 1260.14734727 -859.0078125 1257.78125 C-859.71596874 1256.35407878 -860.42431097 1254.92699984 -861.1328125 1253.5 C-861.50664063 1252.74589844 -861.88046875 1251.99179688 -862.265625 1251.21484375 C-863.48477134 1248.76444035 -864.71372369 1246.31917162 -865.9453125 1243.875 C-872.37923675 1231.09685289 -878.62526685 1218.30579741 -884.09985352 1205.08349609 C-885.43079921 1201.87869671 -886.78171238 1198.68297216 -888.13671875 1195.48828125 C-893.71252927 1182.26085924 -898.99389639 1168.96605145 -903.8828125 1155.46875 C-904.12766388 1154.793815 -904.37251526 1154.11888 -904.62478638 1153.42349243 C-909.75299241 1139.25085804 -914.50163366 1124.97325237 -918.8203125 1110.53125 C-919.01096283 1109.89499695 -919.20161316 1109.2587439 -919.39804077 1108.60321045 C-923.07362311 1096.31673713 -926.49599836 1083.96895616 -929.73583984 1071.56005859 C-930.34661651 1069.22162045 -930.96679012 1066.88596598 -931.58984375 1064.55078125 C-935.9562898 1047.76344882 -938.9527093 1030.63620673 -942.1328125 1013.59375 C-942.33511475 1012.51246826 -942.53741699 1011.43118652 -942.74584961 1010.31713867 C-944.80010944 999.18512088 -946.49454219 988.01521526 -947.8828125 976.78125 C-948.00841553 975.76522705 -948.13401855 974.7492041 -948.26342773 973.70239258 C-950.36210916 956.50990046 -952.26480832 939.30378514 -953.5703125 922.03125 C-953.68354858 920.55144653 -953.68354858 920.55144653 -953.79907227 919.04174805 C-955.20536005 899.36481713 -955.65189132 879.69094777 -955.6328125 859.96875 C-955.63220825 858.8004364 -955.631604 857.6321228 -955.63098145 856.42840576 C-955.5671641 810.53984149 -953.36144536 763.69266506 -944.92724609 718.48901367 C-944.36072765 715.37947603 -943.87681907 712.26242989 -943.40625 709.13720703 C-942.26286577 701.54400567 -940.95224621 693.99836171 -939.4453125 686.46875 C-939.29143066 685.69797119 -939.13754883 684.92719238 -938.97900391 684.13305664 C-934.22577552 660.80283254 -928.25432841 637.65459524 -921.4453125 614.84375 C-921.03563232 613.47041504 -921.03563232 613.47041504 -920.61767578 612.06933594 C-917.39896983 601.32073089 -914.0797157 590.60378521 -910.6953125 579.90625 C-910.27294312 578.56639038 -910.27294312 578.56639038 -909.84204102 577.19946289 C-908.19250262 572.019627 -906.40629959 566.9143172 -904.4453125 561.84375 C-904.02314453 560.74361572 -903.60097656 559.64348145 -903.16601562 558.51000977 C-901.90399427 555.223222 -900.6363313 551.9386397 -899.36669922 548.65478516 C-898.83864755 547.28819651 -898.31129591 545.92133714 -897.78466797 544.55419922 C-889.33002167 522.60595858 -889.33002167 522.60595858 -884.2578125 512.03125 C-881.67080846 506.59209392 -879.25475466 501.09507342 -876.89550781 495.5534668 C-872.31855742 484.82524374 -867.30421821 474.49462893 -861.73828125 464.24902344 C-860.38594413 461.73330869 -859.06785874 459.20204113 -857.7578125 456.6640625 C-852.05730672 445.622762 -846.08318476 434.79348096 -839.76855469 424.09179688 C-838.48748586 421.91539803 -837.21849841 419.73242875 -835.953125 417.546875 C-827.44476147 402.89132059 -818.48649483 388.54084073 -808.72900391 374.68261719 C-805.46105622 370.00133496 -802.26379338 365.2706463 -799.04907227 360.55273438 C-798.010122 359.03096372 -796.96847895 357.51102711 -795.92382812 355.99316406 C-794.94680581 354.57280335 -793.9766054 353.14772315 -793.01367188 351.71777344 C-791.87453342 350.05743327 -790.66637982 348.44479981 -789.4453125 346.84375 C-788.7853125 346.84375 -788.1253125 346.84375 -787.4453125 346.84375 C-787.18492187 346.11027344 -786.92453125 345.37679688 -786.65625 344.62109375 C-785.42045184 341.78673087 -784.01932904 339.79358248 -782.0703125 337.40625 C-779.94500509 334.76397593 -777.9361375 332.15296 -776.1328125 329.28125 C-775.5759375 328.476875 -775.0190625 327.6725 -774.4453125 326.84375 C-773.7853125 326.84375 -773.1253125 326.84375 -772.4453125 326.84375 C-772.2596875 326.18375 -772.0740625 325.52375 -771.8828125 324.84375 C-770.20675843 321.34589802 -768.07556239 318.98277046 -765.484375 316.125 C-763.3293433 313.71400668 -761.29134485 311.23293544 -759.2578125 308.71875 C-755.10173995 303.60413404 -750.83281415 298.59605915 -746.51879883 293.61474609 C-744.49036091 291.26567435 -742.52779818 288.95889404 -740.71875 286.43359375 C-740.08839844 285.64662109 -740.08839844 285.64662109 -739.4453125 284.84375 C-738.7853125 284.84375 -738.1253125 284.84375 -737.4453125 284.84375 C-737.4453125 284.18375 -737.4453125 283.52375 -737.4453125 282.84375 C-736.7853125 282.84375 -736.1253125 282.84375 -735.4453125 282.84375 C-735.17452881 282.25150635 -734.90374512 281.6592627 -734.62475586 281.04907227 C-733.45952029 278.87031571 -732.26148738 277.35062831 -730.57421875 275.55859375 C-730.00517822 274.95088135 -729.4361377 274.34316895 -728.84985352 273.71704102 C-728.24197998 273.07822998 -727.63410645 272.43941895 -727.0078125 271.78125 C-726.38253662 271.11730225 -725.75726074 270.45335449 -725.11303711 269.76928711 C-720.44527157 264.83530146 -715.6623538 260.03252472 -710.828125 255.26171875 C-708.74301051 253.14584027 -706.79864842 250.98656508 -704.8828125 248.71875 C-701.59769441 244.87180649 -697.9182644 241.60737333 -694.125 238.26953125 C-691.26043141 235.6763868 -688.53062147 232.97038754 -685.8203125 230.21875 C-682.14933746 226.51173454 -678.42773283 222.96441369 -674.4609375 219.578125 C-672.14416629 217.58462419 -669.89111266 215.52820612 -667.6328125 213.46875 C-663.36355986 209.61474382 -658.96066863 205.96996518 -654.48828125 202.35546875 C-650.95490514 199.43895933 -647.51479248 196.4265848 -644.0703125 193.40625 C-637.40779635 187.58194046 -630.50834944 182.16935539 -623.4453125 176.84375 C-621.90129588 175.6384209 -620.35939743 174.43037005 -618.8203125 173.21875 C-592.348986 152.62463137 -563.84428057 134.62252865 -535.4453125 116.84375 C-534.47851562 116.2353125 -533.51171875 115.626875 -532.515625 115 C-526.77717248 111.4628555 -520.80972656 108.47863732 -514.7421875 105.5546875 C-511.46434327 103.85362616 -508.50629966 101.90363369 -505.4453125 99.84375 C-503.73405038 98.93423127 -502.00386952 98.05953965 -500.2578125 97.21875 C-494.00927439 94.15665546 -487.86484447 90.91669229 -481.7355957 87.62255859 C-470.09783652 81.43149439 -457.94556248 76.24164566 -445.90771484 70.88476562 C-443.5792069 69.84771133 -441.25249735 68.80669199 -438.92578125 67.765625 C-429.51319067 63.5674116 -420.04716981 59.59023293 -410.4453125 55.84375 C-409.52218262 55.48039551 -408.59905273 55.11704102 -407.64794922 54.74267578 C-397.10563705 50.61103612 -386.50284593 46.74967087 -375.72412109 43.27758789 C-371.5975943 41.93982242 -367.56139499 40.5111283 -363.55078125 38.85546875 C-358.12041946 36.64570199 -352.58159966 35.00358762 -346.9453125 33.40625 C-345.89722412 33.10549561 -344.84913574 32.80474121 -343.76928711 32.49487305 C-340.6628166 31.60572016 -337.55423625 30.72427974 -334.4453125 29.84375 C-332.79032918 29.3699153 -331.13537819 28.89596767 -329.48046875 28.421875 C-321.54467212 26.16629476 -313.58796997 24.09042387 -305.53930664 22.2746582 C-301.85224357 21.43819155 -298.21566936 20.50456156 -294.578125 19.47265625 C-286.5523783 17.26227761 -278.40274756 15.61020629 -270.2578125 13.90625 C-269.42059662 13.73011169 -268.58338074 13.55397339 -267.72079468 13.37249756 C-254.84253153 10.66867534 -241.94902023 8.25096658 -228.94116211 6.24926758 C-226.31531872 5.82262903 -223.70684799 5.33051333 -221.09375 4.83203125 C-215.01134026 3.71261529 -208.90661377 3.04501071 -202.7578125 2.40625 C-195.11364877 1.59500077 -187.49063963 0.73425454 -179.87817383 -0.33496094 C-122.88504001 -8.12499714 -56.88419787 -9.39820873 0 0 Z " fill="#000000" transform="translate(1120.4453125,159.15625)"/>
<path d="M0 0 C6.74235885 1.08574256 13.53498189 1.74282434 20.32290649 2.47070312 C43.6278283 4.9903217 66.40860514 9.22369717 89.26171875 14.43359375 C94.90376438 15.71373614 100.56295466 16.86718897 106.2421875 17.96875 C116.38517375 19.95045505 126.41285055 22.27232563 136.30859375 25.2734375 C139.85183114 26.34760283 143.40412046 27.35825192 146.98046875 28.31640625 C164.93926866 33.14776778 182.54645787 38.91324216 199.9453125 45.48828125 C203.52157965 46.83131664 207.12366062 48.05728042 210.7421875 49.28125 C219.14270795 52.18867247 227.34796105 55.56163557 235.5546875 58.96875 C236.18047699 59.22832489 236.80626648 59.48789978 237.45101929 59.75534058 C244.52684338 62.69520338 251.57122054 65.69089 258.5546875 68.84375 C259.78856201 69.39603271 259.78856201 69.39603271 261.04736328 69.95947266 C272.27489741 74.98992368 283.40251773 80.1497453 294.36279297 85.73828125 C296.86671487 87.00111912 299.3835768 88.23579337 301.90234375 89.46875 C311.61494878 94.23859387 321.09202374 99.15407907 330.29296875 104.8515625 C333.29365678 106.68431807 336.32684598 108.37925438 339.4296875 110.03125 C343.60202023 112.26554652 347.49118102 114.75079936 351.39453125 117.421875 C353.46535586 118.78494943 355.55956834 119.98253951 357.7421875 121.15625 C365.96123664 125.62499874 373.81645962 130.85056637 381.4296875 136.28125 C385.68936209 139.31784971 390.09758686 142.04919617 394.5546875 144.78125 C399.98466828 148.12663476 405.03931247 151.63157904 409.9453125 155.72265625 C413.16865971 158.3428322 416.50656562 160.77873638 419.8671875 163.21875 C435.81688792 174.84570892 451.05575583 187.26837535 466.07617188 200.06860352 C469.35184196 202.85261092 472.68056211 205.55522834 476.0546875 208.21875 C479.45466513 210.91131293 482.52719431 213.73215978 485.5546875 216.84375 C486.5446875 217.66875 487.5346875 218.49375 488.5546875 219.34375 C491.40388895 221.71808454 493.95074775 224.20539694 496.5546875 226.84375 C498.40743637 228.72015098 500.26162957 230.59512683 502.1171875 232.46875 C502.58576172 232.94570313 503.05433594 233.42265625 503.53710938 233.9140625 C505.57005369 235.96122321 507.56274573 237.84964233 509.89453125 239.5546875 C510.71630859 240.19277344 510.71630859 240.19277344 511.5546875 240.84375 C511.5546875 241.50375 511.5546875 242.16375 511.5546875 242.84375 C512.10769531 243.07320312 512.66070313 243.30265625 513.23046875 243.5390625 C521.57573467 248.22363194 528.04784897 257.4481717 533.484375 265.1171875 C535.64564826 267.96354361 537.97944569 270.36973625 540.5546875 272.84375 C545.10417522 277.31295265 549.50172686 281.82729134 553.65625 286.66796875 C555.82213755 289.15027198 558.06345707 291.55430145 560.3046875 293.96875 C564.65258165 298.72632415 568.64134061 303.68590972 572.58227539 308.78271484 C575.78335014 312.90869611 579.14259821 316.83060353 582.65234375 320.69921875 C587.73600147 326.43007725 592.38983478 332.53803938 596.953125 338.6875 C598.11771572 340.25543677 599.29072953 341.81712804 600.46875 343.375 C612.85190289 359.76579146 624.69676097 376.46445271 635.6484375 393.84765625 C637.13226636 396.17982169 638.63267562 398.49727529 640.1484375 400.80859375 C645.51987543 409.00956174 650.63964484 417.25588379 655.41796875 425.81933594 C657.23463141 429.05468104 659.08377099 432.27134015 660.92895508 435.49047852 C662.99584077 439.0977638 665.05542165 442.70919509 667.11474609 446.32080078 C668.022431 447.91117307 668.93142894 449.50079736 669.84228516 451.08935547 C677.77052117 464.91782405 684.84606778 479.07471746 691.50195312 493.55859375 C692.73719643 496.23991967 693.98224061 498.91662547 695.2265625 501.59375 C699.81633183 511.5009922 704.30105577 521.39293771 708.23828125 531.578125 C709.50737277 534.72637579 710.93452775 537.7351112 712.4296875 540.78125 C715.77313827 547.86971482 718.10201169 555.24763024 720.51855469 562.69384766 C722.55305914 568.93409368 724.73263558 575.06656703 727.1796875 581.15625 C733.19930787 596.24421359 737.50181336 611.89610266 741.89501953 627.51806641 C742.77873164 630.63362583 743.70181532 633.7373665 744.6171875 636.84375 C747.24837268 646.10122603 749.401762 655.46591084 751.5546875 664.84375 C751.8679098 666.19826335 752.18122897 667.5527543 752.49462891 668.90722656 C756.66439914 686.96794952 760.48605027 704.95355828 763.14941406 723.30908203 C763.54452414 725.78018611 764.0373819 728.20983496 764.5625 730.65625 C765.86032937 736.95662166 766.42818095 743.32287539 767.0546875 749.71875 C768.02190658 759.60850794 768.02190658 759.60850794 769.55078125 769.421875 C770.96177128 777.52399185 771.39329416 785.71525428 771.93237305 793.91210938 C772.11456075 796.67885943 772.30550831 799.44489055 772.49804688 802.2109375 C773.83376806 821.69490542 774.81004422 841.1859116 774.8671875 860.71875 C774.87013824 861.63343048 774.87308899 862.54811096 774.87612915 863.49050903 C774.8888563 881.42230513 773.9882684 899.28712038 772.87307358 917.17734528 C772.74404925 919.25132356 772.61758273 921.32544652 772.49136353 923.39959717 C771.53685804 938.93032112 770.18756696 954.29244041 767.87185669 969.68081665 C767.45348134 972.53392478 767.10877573 975.39298061 766.78125 978.2578125 C764.05072224 1002.01803951 759.40155557 1025.38058647 754.24365234 1048.72070312 C753.60646294 1051.60905426 752.97903451 1054.49930738 752.35546875 1057.390625 C752.00556719 1059.00007806 751.65533493 1060.60945928 751.3046875 1062.21875 C751.15378662 1062.9195166 751.00288574 1063.6202832 750.84741211 1064.34228516 C750.22190108 1067.17488103 749.53008908 1069.91533613 748.58691406 1072.66015625 C747.54676525 1075.86818381 746.83829047 1079.01422245 746.1796875 1082.3203125 C744.62794464 1089.72406564 742.67600041 1096.95980843 740.5546875 1104.21875 C740.3658197 1104.8688504 740.1769519 1105.51895081 739.98236084 1106.18875122 C734.60258731 1124.646805 728.34894688 1142.8601317 721.5546875 1160.84375 C720.82259458 1162.94690034 720.09338715 1165.0510575 719.3671875 1167.15625 C717.01952635 1173.76658289 714.36146839 1180.21439094 711.58520508 1186.65551758 C709.68185799 1191.08866016 707.90104486 1195.54622464 706.203125 1200.0625 C703.50804137 1207.12088079 700.39283187 1213.94597288 697.1796875 1220.78125 C696.59792908 1222.02565348 696.01630591 1223.27012019 695.43481445 1224.51464844 C691.60465362 1232.69380792 687.65795303 1240.79813131 683.5546875 1248.84375 C682.93819813 1250.09281106 682.3237189 1251.34286566 681.7109375 1252.59375 C677.04573164 1262.09274131 672.02036081 1271.35016043 666.828125 1280.5703125 C665.57878952 1282.80072123 664.34524042 1285.03906306 663.1171875 1287.28125 C654.44527011 1303.09525888 645.35119329 1318.5525481 634.99609375 1333.328125 C632.97164796 1336.22085196 631.04971703 1339.16052701 629.1796875 1342.15625 C621.3877789 1354.53054295 613.00766279 1366.48084148 604.03344727 1378.02368164 C600.43574117 1382.65373922 597.04588459 1387.3520805 593.82421875 1392.25390625 C593.19580078 1393.04087891 593.19580078 1393.04087891 592.5546875 1393.84375 C591.8946875 1393.84375 591.2346875 1393.84375 590.5546875 1393.84375 C590.29816406 1394.58367187 590.04164062 1395.32359375 589.77734375 1396.0859375 C588.49894209 1398.96948885 587.14359406 1400.68260889 584.9921875 1402.96875 C581.9851013 1406.24577213 579.10125581 1409.57247062 576.3046875 1413.03125 C566.54928047 1425.04049244 556.49826836 1436.90016914 545.5546875 1447.84375 C543.25191764 1450.3835697 540.96848023 1452.94018285 538.68359375 1455.49609375 C536.38572247 1458.03007658 533.97319358 1460.42524392 531.5546875 1462.84375 C529.65940558 1465.00684349 527.77622753 1467.17883099 525.91015625 1469.3671875 C523.95785684 1471.41985388 521.99842995 1473.22833198 519.85546875 1475.0703125 C515.18416246 1479.09937515 510.87755553 1483.4471129 506.5546875 1487.84375 C501.62452835 1492.85804156 496.6631769 1497.73742482 491.32714844 1502.32080078 C488.29987999 1504.92191656 485.37733098 1507.64073064 482.4375 1510.33984375 C480.5546875 1511.84375 480.5546875 1511.84375 478.5546875 1511.84375 C478.5546875 1512.50375 478.5546875 1513.16375 478.5546875 1513.84375 C477.06730515 1515.19757149 475.51038199 1516.47514886 473.9296875 1517.71875 C469.42591247 1521.31599595 465.03006771 1525.00054802 460.6796875 1528.78125 C455.21849455 1533.4996313 449.61632788 1537.96887923 443.86328125 1542.32421875 C439.65488651 1545.51124458 435.5247689 1548.79781467 431.3984375 1552.09008789 C427.89228451 1554.86631039 424.28727361 1557.37406897 420.5546875 1559.84375 C417.72623678 1561.86350538 414.92414157 1563.91926629 412.1171875 1565.96875 C398.97571026 1575.50932537 385.48258154 1584.58854855 371.4921875 1592.84375 C368.07940741 1594.86773315 364.83810738 1597.02712624 361.6171875 1599.34375 C357.50838947 1602.26048934 353.31075698 1604.69898879 348.859375 1607.05078125 C345.4353613 1608.90849081 342.07834504 1610.8588445 338.71850586 1612.8293457 C331.30960896 1617.17329817 323.8917498 1621.29524621 316.16796875 1625.0546875 C312.76464615 1626.71895485 309.42611621 1628.49372167 306.08544922 1630.27978516 C289.52506529 1639.12418274 272.66637753 1647.39061709 255.22265625 1654.34765625 C251.95517908 1655.6803972 248.79474482 1657.12474373 245.6171875 1658.65625 C239.03397062 1661.74786198 232.27766244 1664.3557959 225.4921875 1666.96875 C224.40365479 1667.38874268 223.31512207 1667.80873535 222.19360352 1668.24145508 C215.97430126 1670.61480124 209.72233304 1672.8018933 203.39624023 1674.87182617 C200.70101891 1675.79369885 198.07368231 1676.80892407 195.4375 1677.88671875 C190.50792113 1679.89997368 185.50960319 1681.56596251 180.4296875 1683.15625 C179.48738281 1683.45329834 178.54507812 1683.75034668 177.57421875 1684.05639648 C166.61650722 1687.48609523 155.59982031 1690.70834553 144.5546875 1693.84375 C143.65314941 1694.1001123 142.75161133 1694.35647461 141.82275391 1694.62060547 C100.38391025 1706.33506247 57.62961679 1715.82471449 14.62890625 1719.3828125 C10.11235568 1719.76588519 5.6324795 1720.33165079 1.1395874 1720.92697144 C-9.69795108 1722.33413486 -20.5326474 1723.29867001 -31.44140625 1723.921875 C-32.18883654 1723.96499565 -32.93626682 1724.0081163 -33.70634651 1724.05254364 C-50.18775345 1724.98151866 -66.64756261 1725.15252635 -83.15161133 1725.10449219 C-87.09113007 1725.09310865 -91.03037815 1725.09990645 -94.96988773 1725.11135292 C-125.24829907 1725.18620358 -155.34899796 1723.93036255 -185.43188477 1720.34912109 C-188.67527236 1719.96370443 -191.92033472 1719.59602243 -195.16601562 1719.23046875 C-215.44603246 1716.90637418 -235.57900152 1713.70777102 -255.6328125 1709.90625 C-256.29954987 1709.78024414 -256.96628723 1709.65423828 -257.65322876 1709.52441406 C-276.01953901 1706.04440737 -294.0272991 1701.84452776 -311.9609375 1696.56689453 C-315.86138761 1695.43156304 -319.77830788 1694.35775664 -323.6953125 1693.28125 C-326.6129533 1692.47222304 -329.52942382 1691.65906775 -332.4453125 1690.84375 C-333.10321777 1690.66021973 -333.76112305 1690.47668945 -334.43896484 1690.28759766 C-365.58563696 1681.53853246 -396.98317372 1671.04822777 -426.28515625 1657.26953125 C-429.36705568 1655.87905746 -432.46677344 1654.65353808 -435.6328125 1653.46875 C-449.17933676 1648.34611478 -462.07168278 1642.13040135 -474.828125 1635.296875 C-479.16064097 1632.97918751 -483.54064857 1630.77049492 -487.9453125 1628.59375 C-494.19979894 1625.49446621 -500.33983672 1622.22840886 -506.4453125 1618.84375 C-507.27675781 1618.39773438 -508.10820313 1617.95171875 -508.96484375 1617.4921875 C-522.46867836 1610.24425228 -535.53276841 1602.25037394 -548.48779297 1594.07177734 C-550.39476933 1592.87545768 -552.31054799 1591.69494222 -554.23046875 1590.51953125 C-565.90229199 1583.35272706 -577.18772159 1575.64127812 -588.4453125 1567.84375 C-589.67241943 1566.99466064 -589.67241943 1566.99466064 -590.92431641 1566.12841797 C-598.4557131 1560.90379478 -605.90431159 1555.64753343 -612.99609375 1549.83203125 C-615.9134153 1547.46374311 -618.89557947 1545.18496429 -621.8828125 1542.90625 C-630.93406493 1535.97270371 -639.67031029 1528.69405788 -648.29321289 1521.23730469 C-652.66857712 1517.46667548 -657.15510872 1513.8687606 -661.75 1510.3671875 C-662.58917969 1509.61308594 -662.58917969 1509.61308594 -663.4453125 1508.84375 C-663.4453125 1508.18375 -663.4453125 1507.52375 -663.4453125 1506.84375 C-663.9815625 1506.616875 -664.5178125 1506.39 -665.0703125 1506.15625 C-668.26991411 1504.38804911 -670.73568473 1502.30704797 -673.4453125 1499.84375 C-673.4453125 1499.18375 -673.4453125 1498.52375 -673.4453125 1497.84375 C-674.03441406 1497.58207031 -674.62351562 1497.32039063 -675.23046875 1497.05078125 C-677.56316684 1495.7795225 -679.04885618 1494.44144469 -680.8828125 1492.53125 C-681.49382812 1491.90347656 -682.10484375 1491.27570313 -682.734375 1490.62890625 C-683.29898437 1490.03980469 -683.86359375 1489.45070313 -684.4453125 1488.84375 C-687.48329812 1485.72365666 -690.62249812 1482.78955735 -693.8828125 1479.90625 C-698.40081178 1475.85987243 -702.75993613 1471.67290504 -707.0703125 1467.40625 C-708.0128186 1466.48307983 -708.0128186 1466.48307983 -708.97436523 1465.54125977 C-709.55516846 1464.96174561 -710.13597168 1464.38223145 -710.734375 1463.78515625 C-711.25725098 1463.26638916 -711.78012695 1462.74762207 -712.31884766 1462.21313477 C-713.4453125 1460.84375 -713.4453125 1460.84375 -713.4453125 1458.84375 C-714.033125 1458.59367187 -714.6209375 1458.34359375 -715.2265625 1458.0859375 C-717.73872352 1456.67948115 -719.11176602 1455.17734008 -720.9453125 1452.96875 C-722.86712412 1450.68737363 -724.74295632 1448.55373808 -726.8828125 1446.46875 C-728.4453125 1444.84375 -728.4453125 1444.84375 -728.4453125 1442.84375 C-729.280625 1442.534375 -729.280625 1442.534375 -730.1328125 1442.21875 C-733.41543621 1440.26691968 -735.15204496 1437.90144006 -737.4453125 1434.84375 C-737.4453125 1434.18375 -737.4453125 1433.52375 -737.4453125 1432.84375 C-738.4353125 1432.51375 -739.4253125 1432.18375 -740.4453125 1431.84375 C-742.171875 1429.91015625 -742.171875 1429.91015625 -744.0703125 1427.40625 C-746.84548516 1423.83239377 -749.68770553 1420.41740261 -752.7578125 1417.09375 C-757.90231649 1411.4516774 -762.5593745 1405.46465629 -767.22314453 1399.42578125 C-768.81017559 1397.37145419 -770.40963766 1395.32691379 -772.0078125 1393.28125 C-773.15405712 1391.80240203 -774.29984941 1390.3232034 -775.4453125 1388.84375 C-776.23808594 1387.82539062 -777.03085937 1386.80703125 -777.84765625 1385.7578125 C-792.4453125 1366.95583223 -792.4453125 1366.95583223 -792.4453125 1363.84375 C-793.1053125 1363.84375 -793.7653125 1363.84375 -794.4453125 1363.84375 C-796.03576516 1361.68746322 -797.50136463 1359.53343327 -798.9453125 1357.28125 C-799.85003316 1355.89568492 -800.75498752 1354.51027241 -801.66015625 1353.125 C-802.12276855 1352.41214844 -802.58538086 1351.69929688 -803.06201172 1350.96484375 C-804.77411774 1348.33957422 -806.51747892 1345.73620639 -808.2644043 1343.1340332 C-812.70706218 1336.51409786 -817.06197853 1329.84112351 -821.3515625 1323.12109375 C-822.67730445 1321.04591185 -824.00981139 1318.97502322 -825.3515625 1316.91015625 C-828.18532004 1312.52901795 -830.86897544 1308.13842048 -833.3203125 1303.53125 C-835.62298879 1299.20835904 -838.18481233 1295.11440436 -840.8828125 1291.03125 C-844.7277259 1285.19279747 -847.92095775 1279.20502261 -850.9375 1272.90234375 C-852.31411211 1270.10988965 -853.84190478 1267.50926155 -855.4453125 1264.84375 C-856.65329928 1262.49752163 -857.84030887 1260.14734727 -859.0078125 1257.78125 C-859.71596874 1256.35407878 -860.42431097 1254.92699984 -861.1328125 1253.5 C-861.50664063 1252.74589844 -861.88046875 1251.99179688 -862.265625 1251.21484375 C-863.48477134 1248.76444035 -864.71372369 1246.31917162 -865.9453125 1243.875 C-872.37923675 1231.09685289 -878.62526685 1218.30579741 -884.09985352 1205.08349609 C-885.43079921 1201.87869671 -886.78171238 1198.68297216 -888.13671875 1195.48828125 C-893.71252927 1182.26085924 -898.99389639 1168.96605145 -903.8828125 1155.46875 C-904.12766388 1154.793815 -904.37251526 1154.11888 -904.62478638 1153.42349243 C-909.75299241 1139.25085804 -914.50163366 1124.97325237 -918.8203125 1110.53125 C-919.01096283 1109.89499695 -919.20161316 1109.2587439 -919.39804077 1108.60321045 C-923.07362311 1096.31673713 -926.49599836 1083.96895616 -929.73583984 1071.56005859 C-930.34661651 1069.22162045 -930.96679012 1066.88596598 -931.58984375 1064.55078125 C-935.9562898 1047.76344882 -938.9527093 1030.63620673 -942.1328125 1013.59375 C-942.33511475 1012.51246826 -942.53741699 1011.43118652 -942.74584961 1010.31713867 C-944.80010944 999.18512088 -946.49454219 988.01521526 -947.8828125 976.78125 C-948.00841553 975.76522705 -948.13401855 974.7492041 -948.26342773 973.70239258 C-950.36210916 956.50990046 -952.26480832 939.30378514 -953.5703125 922.03125 C-953.68354858 920.55144653 -953.68354858 920.55144653 -953.79907227 919.04174805 C-955.20536005 899.36481713 -955.65189132 879.69094777 -955.6328125 859.96875 C-955.63220825 858.8004364 -955.631604 857.6321228 -955.63098145 856.42840576 C-955.5671641 810.53984149 -953.36144536 763.69266506 -944.92724609 718.48901367 C-944.36072765 715.37947603 -943.87681907 712.26242989 -943.40625 709.13720703 C-942.26286577 701.54400567 -940.95224621 693.99836171 -939.4453125 686.46875 C-939.29143066 685.69797119 -939.13754883 684.92719238 -938.97900391 684.13305664 C-934.22577552 660.80283254 -928.25432841 637.65459524 -921.4453125 614.84375 C-921.03563232 613.47041504 -921.03563232 613.47041504 -920.61767578 612.06933594 C-917.39896983 601.32073089 -914.0797157 590.60378521 -910.6953125 579.90625 C-910.27294312 578.56639038 -910.27294312 578.56639038 -909.84204102 577.19946289 C-908.19250262 572.019627 -906.40629959 566.9143172 -904.4453125 561.84375 C-904.02314453 560.74361572 -903.60097656 559.64348145 -903.16601562 558.51000977 C-901.90399427 555.223222 -900.6363313 551.9386397 -899.36669922 548.65478516 C-898.83864755 547.28819651 -898.31129591 545.92133714 -897.78466797 544.55419922 C-889.33002167 522.60595858 -889.33002167 522.60595858 -884.2578125 512.03125 C-881.67080846 506.59209392 -879.25475466 501.09507342 -876.89550781 495.5534668 C-872.31855742 484.82524374 -867.30421821 474.49462893 -861.73828125 464.24902344 C-860.38594413 461.73330869 -859.06785874 459.20204113 -857.7578125 456.6640625 C-852.05730672 445.622762 -846.08318476 434.79348096 -839.76855469 424.09179688 C-838.48748586 421.91539803 -837.21849841 419.73242875 -835.953125 417.546875 C-827.44476147 402.89132059 -818.48649483 388.54084073 -808.72900391 374.68261719 C-805.46105622 370.00133496 -802.26379338 365.2706463 -799.04907227 360.55273438 C-798.010122 359.03096372 -796.96847895 357.51102711 -795.92382812 355.99316406 C-794.94680581 354.57280335 -793.9766054 353.14772315 -793.01367188 351.71777344 C-791.87453342 350.05743327 -790.66637982 348.44479981 -789.4453125 346.84375 C-788.7853125 346.84375 -788.1253125 346.84375 -787.4453125 346.84375 C-787.18492187 346.11027344 -786.92453125 345.37679688 -786.65625 344.62109375 C-785.42045184 341.78673087 -784.01932904 339.79358248 -782.0703125 337.40625 C-779.94500509 334.76397593 -777.9361375 332.15296 -776.1328125 329.28125 C-775.5759375 328.476875 -775.0190625 327.6725 -774.4453125 326.84375 C-773.7853125 326.84375 -773.1253125 326.84375 -772.4453125 326.84375 C-772.2596875 326.18375 -772.0740625 325.52375 -771.8828125 324.84375 C-770.20675843 321.34589802 -768.07556239 318.98277046 -765.484375 316.125 C-763.3293433 313.71400668 -761.29134485 311.23293544 -759.2578125 308.71875 C-755.10173995 303.60413404 -750.83281415 298.59605915 -746.51879883 293.61474609 C-744.49036091 291.26567435 -742.52779818 288.95889404 -740.71875 286.43359375 C-740.08839844 285.64662109 -740.08839844 285.64662109 -739.4453125 284.84375 C-738.7853125 284.84375 -738.1253125 284.84375 -737.4453125 284.84375 C-737.4453125 284.18375 -737.4453125 283.52375 -737.4453125 282.84375 C-736.7853125 282.84375 -736.1253125 282.84375 -735.4453125 282.84375 C-735.17452881 282.25150635 -734.90374512 281.6592627 -734.62475586 281.04907227 C-733.45952029 278.87031571 -732.26148738 277.35062831 -730.57421875 275.55859375 C-730.00517822 274.95088135 -729.4361377 274.34316895 -728.84985352 273.71704102 C-728.24197998 273.07822998 -727.63410645 272.43941895 -727.0078125 271.78125 C-726.38253662 271.11730225 -725.75726074 270.45335449 -725.11303711 269.76928711 C-720.44527157 264.83530146 -715.6623538 260.03252472 -710.828125 255.26171875 C-708.74301051 253.14584027 -706.79864842 250.98656508 -704.8828125 248.71875 C-701.59769441 244.87180649 -697.9182644 241.60737333 -694.125 238.26953125 C-691.26043141 235.6763868 -688.53062147 232.97038754 -685.8203125 230.21875 C-682.14933746 226.51173454 -678.42773283 222.96441369 -674.4609375 219.578125 C-672.14416629 217.58462419 -669.89111266 215.52820612 -667.6328125 213.46875 C-663.36355986 209.61474382 -658.96066863 205.96996518 -654.48828125 202.35546875 C-650.95490514 199.43895933 -647.51479248 196.4265848 -644.0703125 193.40625 C-637.40779635 187.58194046 -630.50834944 182.16935539 -623.4453125 176.84375 C-621.90129588 175.6384209 -620.35939743 174.43037005 -618.8203125 173.21875 C-592.348986 152.62463137 -563.84428057 134.62252865 -535.4453125 116.84375 C-534.47851562 116.2353125 -533.51171875 115.626875 -532.515625 115 C-526.77717248 111.4628555 -520.80972656 108.47863732 -514.7421875 105.5546875 C-511.46434327 103.85362616 -508.50629966 101.90363369 -505.4453125 99.84375 C-503.73405038 98.93423127 -502.00386952 98.05953965 -500.2578125 97.21875 C-494.00927439 94.15665546 -487.86484447 90.91669229 -481.7355957 87.62255859 C-470.09783652 81.43149439 -457.94556248 76.24164566 -445.90771484 70.88476562 C-443.5792069 69.84771133 -441.25249735 68.80669199 -438.92578125 67.765625 C-429.51319067 63.5674116 -420.04716981 59.59023293 -410.4453125 55.84375 C-409.52218262 55.48039551 -408.59905273 55.11704102 -407.64794922 54.74267578 C-397.10563705 50.61103612 -386.50284593 46.74967087 -375.72412109 43.27758789 C-371.5975943 41.93982242 -367.56139499 40.5111283 -363.55078125 38.85546875 C-358.12041946 36.64570199 -352.58159966 35.00358762 -346.9453125 33.40625 C-345.89722412 33.10549561 -344.84913574 32.80474121 -343.76928711 32.49487305 C-340.6628166 31.60572016 -337.55423625 30.72427974 -334.4453125 29.84375 C-332.79032918 29.3699153 -331.13537819 28.89596767 -329.48046875 28.421875 C-321.54467212 26.16629476 -313.58796997 24.09042387 -305.53930664 22.2746582 C-301.85224357 21.43819155 -298.21566936 20.50456156 -294.578125 19.47265625 C-286.5523783 17.26227761 -278.40274756 15.61020629 -270.2578125 13.90625 C-269.42059662 13.73011169 -268.58338074 13.55397339 -267.72079468 13.37249756 C-254.84253153 10.66867534 -241.94902023 8.25096658 -228.94116211 6.24926758 C-226.31531872 5.82262903 -223.70684799 5.33051333 -221.09375 4.83203125 C-215.01134026 3.71261529 -208.90661377 3.04501071 -202.7578125 2.40625 C-195.11364877 1.59500077 -187.49063963 0.73425454 -179.87817383 -0.33496094 C-122.88504001 -8.12499714 -56.88419787 -9.39820873 0 0 Z M-151.4453125 152.84375 C-154.32020214 153.12572212 -157.19097296 153.36703672 -160.0703125 153.59375 C-169.73663747 154.43448707 -179.30157955 155.78051763 -188.8828125 157.28125 C-189.55137268 157.38457642 -190.21993286 157.48790283 -190.90875244 157.59436035 C-199.16514644 158.87610557 -207.31695489 160.38596912 -215.46606445 162.22265625 C-218.75686413 162.90870021 -221.99843595 163.2940258 -225.34082031 163.60742188 C-233.94895374 164.57408929 -242.49897486 166.91629113 -250.9453125 168.78125 C-252.10417969 169.03326172 -253.26304687 169.28527344 -254.45703125 169.54492188 C-260.50322445 170.88054986 -266.43570412 172.34243875 -272.32958984 174.24633789 C-274.43336081 174.84037523 -276.39768282 175.13223888 -278.5703125 175.34375 C-281.99655685 175.78584605 -284.61957268 176.62792988 -287.80859375 177.86279297 C-291.12915088 179.0981632 -294.48490697 180.21832001 -297.84765625 181.33203125 C-298.52741516 181.55735535 -299.20717407 181.78267944 -299.90753174 182.01483154 C-301.33230152 182.48651722 -302.75721111 182.95778081 -304.18225098 183.4286499 C-316.3147823 187.44018554 -328.44258967 191.45580296 -340.4453125 195.84375 C-341.68410156 196.29363281 -342.92289063 196.74351562 -344.19921875 197.20703125 C-350.11464578 199.23479621 -350.11464578 199.23479621 -355.44140625 202.3828125 C-357.93598118 204.20146947 -360.21044233 204.78503246 -363.1953125 205.53125 C-364.18015625 205.78261719 -365.165 206.03398437 -366.1796875 206.29296875 C-366.92734375 206.47472656 -367.675 206.65648437 -368.4453125 206.84375 C-368.4453125 207.50375 -368.4453125 208.16375 -368.4453125 208.84375 C-371.9103125 209.33875 -371.9103125 209.33875 -375.4453125 209.84375 C-375.4453125 210.50375 -375.4453125 211.16375 -375.4453125 211.84375 C-376.3528125 212.05128906 -377.2603125 212.25882813 -378.1953125 212.47265625 C-383.94729873 214.11752756 -389.1464559 217.05732677 -394.4453125 219.78125 C-400.72009776 222.98384517 -406.95664592 226.09393402 -413.4453125 228.84375 C-416.84106931 230.4692493 -420.20606929 232.15417438 -423.5703125 233.84375 C-424.45074219 234.28203125 -425.33117187 234.7203125 -426.23828125 235.171875 C-433.90192145 238.34447244 -433.90192145 238.34447244 -439.4453125 243.84375 C-441.06599114 244.5407701 -442.68920559 245.23235893 -444.32324219 245.89746094 C-448.43344477 247.73031244 -452.22799852 250.13755311 -456.0703125 252.46875 C-457.39591187 253.27107056 -457.39591187 253.27107056 -458.74829102 254.08959961 C-476.67238826 265.02187703 -493.73360691 277.27600196 -505.9453125 294.59375 C-506.50702148 295.38362305 -507.06873047 296.17349609 -507.64746094 296.98730469 C-509.25818551 299.26504996 -510.85532178 301.55149602 -512.4453125 303.84375 C-513.06696289 304.73707031 -513.06696289 304.73707031 -513.70117188 305.6484375 C-517.22744853 310.76621954 -519.6856055 314.58521138 -520.4453125 320.84375 C-521.1053125 320.84375 -521.7653125 320.84375 -522.4453125 320.84375 C-523.24182427 323.32144882 -524.03257465 325.80076088 -524.8203125 328.28125 C-525.04203125 328.96896484 -525.26375 329.65667969 -525.4921875 330.36523438 C-528.4458346 339.70397154 -529.81021701 348.13691606 -529.7578125 357.96875 C-529.75217285 359.07387939 -529.7465332 360.17900879 -529.74072266 361.31762695 C-529.54429108 374.60009671 -527.94299535 391.69666155 -518.4609375 402 C-517.79578125 402.6084375 -517.130625 403.216875 -516.4453125 403.84375 C-515.32991974 405.10474182 -514.22563053 406.37564462 -513.1328125 407.65625 C-512.51664063 408.35492187 -511.90046875 409.05359375 -511.265625 409.7734375 C-510.15811529 411.03305155 -509.06523768 412.30600317 -508 413.6015625 C-487.55103183 436.62003452 -447.80880286 439.28792335 -419.62744141 441.01660156 C-391.66427644 442.29719292 -363.79248101 436.81169601 -337.4453125 427.84375 C-336.68911621 427.58803223 -335.93291992 427.33231445 -335.15380859 427.06884766 C-328.27277099 424.72956256 -321.44399155 422.32470362 -314.7578125 419.46875 C-301.69255715 413.88992196 -288.1587686 409.28943637 -274.63671875 404.94921875 C-271.15650358 403.7437097 -267.8242929 402.30785066 -264.4453125 400.84375 C-259.8865615 399.08103295 -255.30240401 397.38744227 -250.71923828 395.68945312 C-248.42597058 394.83655648 -246.13662989 393.97372239 -243.84765625 393.109375 C-232.82388734 388.96756292 -221.71236243 385.26527631 -210.4453125 381.84375 C-209.20515381 381.46669922 -209.20515381 381.46669922 -207.93994141 381.08203125 C-193.58510504 376.72890019 -193.58510504 376.72890019 -186.4609375 374.70703125 C-175.68887092 371.63433896 -165.08299 368.10069913 -154.47900391 364.49707031 C-131.1775045 356.62232536 -131.1775045 356.62232536 -121.4453125 355.84375 C-121.4453125 355.18375 -121.4453125 354.52375 -121.4453125 353.84375 C-119.95064453 353.70066406 -119.95064453 353.70066406 -118.42578125 353.5546875 C-112.18429604 352.77398823 -106.07277863 351.30074531 -99.93634033 349.94760132 C-87.98849957 347.32140613 -76.1001649 344.96941006 -63.953125 343.44921875 C-60.68702155 343.03960723 -57.4748533 342.48717902 -54.2421875 341.8671875 C-47.72057915 340.65297971 -41.16603473 339.95948259 -34.5703125 339.28125 C-33.39339844 339.15556641 -32.21648438 339.02988281 -31.00390625 338.90039062 C-27.48588554 338.53078559 -23.96627406 338.18408281 -20.4453125 337.84375 C-19.0231543 337.69365479 -19.0231543 337.69365479 -17.57226562 337.54052734 C-5.65243783 336.42680606 6.3443534 336.60069318 18.3046875 336.59375 C20.10548264 336.59223938 20.10548264 336.59223938 21.94265747 336.59069824 C49.21738657 336.60614993 75.77858635 338.35997845 102.5546875 343.84375 C104.48973145 344.23916992 104.48973145 344.23916992 106.46386719 344.64257812 C120.8943767 347.60718048 135.31079165 350.64490872 149.60546875 354.21484375 C152.70410633 354.98278725 152.70410633 354.98278725 156.5546875 354.84375 C156.5546875 355.50375 156.5546875 356.16375 156.5546875 356.84375 C157.85212891 357.22853516 157.85212891 357.22853516 159.17578125 357.62109375 C179.54514423 363.81321331 199.34881741 371.36490308 218.91357422 379.74072266 C221.50607072 380.82344582 224.12052818 381.8249326 226.74609375 382.82421875 C230.63185875 384.36505961 233.99862399 386.23725167 237.48583984 388.52685547 C241.4720753 391.06423499 245.69926998 393.18538075 249.8671875 395.40625 C260.40992702 401.09945276 270.54051336 407.27169807 280.5546875 413.84375 C281.42544922 414.41416016 282.29621094 414.98457031 283.19335938 415.57226562 C299.32415528 426.16787098 314.87127232 437.05456008 329.74609375 449.35546875 C331.33879586 450.66609403 332.94568127 451.95944292 334.5546875 453.25 C347.24621249 463.43273517 358.45432528 474.71394081 369.49316406 486.63378906 C371.53516203 488.82281863 373.59887455 490.9887748 375.671875 493.1484375 C384.47764088 502.34140876 392.71146735 511.8181836 400.5546875 521.84375 C401.00537598 522.41577148 401.45606445 522.98779297 401.92041016 523.57714844 C412.55181806 537.08929937 422.12317387 551.09094371 431.20654297 565.68359375 C433.05446565 568.64455353 434.92765052 571.58866273 436.8046875 574.53125 C437.34609375 575.38074219 437.8875 576.23023438 438.4453125 577.10546875 C438.81140625 577.67910156 439.1775 578.25273438 439.5546875 578.84375 C438.46929688 578.49441406 437.38390625 578.14507813 436.265625 577.78515625 C434.82038089 577.32530585 433.37506453 576.86568245 431.9296875 576.40625 C430.86041016 576.06110352 430.86041016 576.06110352 429.76953125 575.70898438 C425.71292899 574.42501394 421.78529125 573.42429026 417.5546875 572.84375 C417.5546875 572.18375 417.5546875 571.52375 417.5546875 570.84375 C396.67109849 565.26957995 376.44055643 560.51826745 354.92626953 558.16918945 C352.5546875 557.84375 352.5546875 557.84375 350.60205078 557.33886719 C320.02882556 549.94529448 281.49247251 553.65391695 250.5546875 556.84375 C249.63187988 556.92963379 248.70907227 557.01551758 247.75830078 557.10400391 C224.65855108 559.29709654 198.27981102 563.77122591 176.9296875 573.15625 C173.06412739 574.81501567 169.18987715 576.35721151 165.22949219 577.77514648 C127.50175702 591.37033872 93.32556841 612.71553166 64.23730469 640.26269531 C62.4644285 641.92856098 60.67246891 643.57165338 58.875 645.2109375 C52.73268708 650.82247315 46.84841448 656.40893075 41.5546875 662.84375 C40.259121 664.35120821 38.96350899 665.85862749 37.66723633 667.36547852 C26.43338992 680.49697312 16.78016924 694.24545785 7.5546875 708.84375 C6.73726074 710.12693115 6.73726074 710.12693115 5.90332031 711.43603516 C4.33836496 713.89841373 2.78761787 716.36908107 1.2421875 718.84375 C0.76789307 719.59100342 0.29359863 720.33825684 -0.19506836 721.1081543 C-0.62440674 721.80465088 -1.05374512 722.50114746 -1.49609375 723.21875 C-1.87419189 723.82460938 -2.25229004 724.43046875 -2.6418457 725.0546875 C-3.71843338 727.12503589 -3.71843338 727.12503589 -3.4453125 730.84375 C-4.1053125 730.84375 -4.7653125 730.84375 -5.4453125 730.84375 C-6.1878125 732.57625 -6.1878125 732.57625 -6.9453125 734.34375 C-8.53423617 737.9438288 -10.26365806 741.44074981 -12.08081055 744.93066406 C-17.08644601 754.60847297 -21.0843468 764.625039 -25.05078125 774.765625 C-26.69673088 778.96018556 -28.35741296 783.14780889 -30.05859375 787.3203125 C-30.63734253 788.744646 -30.63734253 788.744646 -31.2277832 790.19775391 C-36.84021449 802.39497273 -48.7698299 810.09652555 -60.1953125 816.34375 C-61.07896484 816.83307007 -61.07896484 816.83307007 -61.98046875 817.33227539 C-70.40178626 821.71915628 -78.95983514 822.20691627 -88.3203125 822.21875 C-89.33222656 822.24324219 -90.34414062 822.26773438 -91.38671875 822.29296875 C-101.7282649 822.332693 -110.33780686 819.38555761 -118.5703125 813.15625 C-119.16158936 812.71837158 -119.75286621 812.28049316 -120.36206055 811.8293457 C-139.12838001 797.64904076 -147.9319722 778.09946003 -156.4453125 756.84375 C-156.88629272 755.77894409 -156.88629272 755.77894409 -157.33618164 754.69262695 C-159.99970671 748.18963472 -162.25669743 741.60254819 -164.3828125 734.90625 C-164.90766235 733.25991577 -164.90766235 733.25991577 -165.44311523 731.58032227 C-167.69829279 724.42407971 -169.74919053 717.24587282 -171.59277344 709.97387695 C-173.12184787 703.96491572 -174.85480232 698.033287 -176.6328125 692.09375 C-180.45743725 679.25447717 -183.7216284 666.2761847 -186.98120117 653.28417969 C-187.18821152 652.46394821 -187.39522186 651.64371674 -187.60850525 650.79862976 C-187.99522692 649.26538769 -188.37914977 647.73143543 -188.75953674 646.1966095 C-189.89461478 641.70130922 -191.24127523 637.32962379 -192.77529907 632.95384216 C-193.73224785 629.94009643 -194.28341433 626.88546917 -194.86425781 623.78125 C-195.57506463 620.18779304 -196.40546021 616.62628723 -197.25 613.0625 C-197.41506546 612.36481506 -197.58013092 611.66713013 -197.75019836 610.94830322 C-198.27229163 608.74647969 -198.79614214 606.54507991 -199.3203125 604.34375 C-203.47115069 586.88532876 -203.47115069 586.88532876 -205.078125 579.15429688 C-207.18664179 569.04300045 -210.30881758 559.30719939 -213.56494141 549.51269531 C-214.40360088 546.97020354 -215.21580978 544.42090646 -216.01953125 541.8671875 C-218.50586873 534.04928891 -221.23072365 526.7469762 -225.09375 519.4765625 C-226.32248543 517.08301429 -227.27936659 514.74402144 -228.1953125 512.21875 C-233.54005137 498.55997288 -241.34028004 486.41539291 -251.4453125 475.84375 C-252.24582031 475.00199219 -253.04632812 474.16023438 -253.87109375 473.29296875 C-263.594588 463.82409955 -275.25529314 458.36645182 -288.86328125 458.50390625 C-298.90583497 459.45668943 -307.10631075 464.16680791 -314.4453125 470.84375 C-315.08597656 471.39289063 -315.72664063 471.94203125 -316.38671875 472.5078125 C-323.35966979 478.90320597 -328.30327186 486.97797429 -333.4453125 494.84375 C-333.82751953 495.41818848 -334.20972656 495.99262695 -334.60351562 496.58447266 C-343.34913444 509.77035802 -348.59938399 523.92475241 -353.7578125 538.78125 C-354.19077637 540.02583984 -354.62374023 541.27042969 -355.06982422 542.55273438 C-358.07046273 551.34766853 -360.8434291 559.48800996 -360.4453125 568.84375 C-361.16783203 568.67770264 -361.89035156 568.51165527 -362.63476562 568.34057617 C-366.06899259 567.55876345 -369.50704904 566.7951079 -372.9453125 566.03125 C-374.646875 565.63969727 -374.646875 565.63969727 -376.3828125 565.24023438 C-397.70638624 560.54673037 -418.92172334 559.34698401 -440.69628906 559.45263672 C-444.21381359 559.46959545 -447.73064971 559.45963939 -451.24814987 559.44230175 C-477.11926178 559.33479763 -503.01576648 560.80528819 -528.4453125 565.84375 C-529.32799805 566.01583984 -530.21068359 566.18792969 -531.12011719 566.36523438 C-536.90144123 567.49494117 -542.6753923 568.6572424 -548.4453125 569.84375 C-548.4453125 570.50375 -548.4453125 571.16375 -548.4453125 571.84375 C-549.6415625 571.781875 -550.8378125 571.72 -552.0703125 571.65625 C-556.22515745 571.44134423 -558.79342407 572.95405711 -562.4453125 574.84375 C-564.59554505 575.6005066 -566.76336986 576.30897211 -568.9453125 576.96875 C-570.028125 577.30132813 -571.1109375 577.63390625 -572.2265625 577.9765625 C-575.29228883 578.80252275 -578.30636215 579.38047118 -581.4453125 579.84375 C-585.4453125 570.84375 -585.4453125 570.84375 -586.22363281 569.08374023 C-589.35206829 562.02123834 -592.52889066 554.98061022 -595.71630859 547.94458008 C-596.3630533 546.51545168 -597.00858448 545.08577342 -597.65283203 543.65551758 C-602.33838158 533.25532674 -607.27330709 523.01085978 -612.4453125 512.84375 C-613.1053125 512.84375 -613.7653125 512.84375 -614.4453125 512.84375 C-614.61619385 511.74015137 -614.61619385 511.74015137 -614.79052734 510.61425781 C-615.46152618 507.77514715 -616.36533286 505.96423024 -617.921875 503.515625 C-618.42412598 502.71995117 -618.92637695 501.92427734 -619.44384766 501.10449219 C-619.98058105 500.27594727 -620.51731445 499.44740234 -621.0703125 498.59375 C-621.89281494 497.31612793 -621.89281494 497.31612793 -622.73193359 496.01269531 C-630.69736272 483.73825409 -638.82377992 473.3426831 -653.4453125 468.84375 C-661.60073637 467.89228388 -670.60891273 469.78346124 -677.8203125 473.65625 C-678.6865625 474.378125 -679.5528125 475.1 -680.4453125 475.84375 C-681.24859985 476.4773645 -681.24859985 476.4773645 -682.06811523 477.1237793 C-686.36306793 480.61024208 -689.32350455 484.10026428 -692.1328125 488.84375 C-692.5450708 489.52091064 -692.9573291 490.19807129 -693.38208008 490.89575195 C-698.58343277 499.55500336 -703.34712171 508.46791223 -708.11474609 517.37060547 C-709.2695157 519.51699375 -710.43897662 521.65375474 -711.62109375 523.78515625 C-712.22308594 524.87699219 -712.82507813 525.96882813 -713.4453125 527.09375 C-713.9403125 527.98578125 -714.4353125 528.8778125 -714.9453125 529.796875 C-716.2067138 532.35909639 -717.25742604 534.87590108 -718.28515625 537.53515625 C-720.46660345 543.08991124 -723.17944616 548.28293189 -726.0078125 553.53125 C-730.004607 560.98444243 -733.6108295 568.274621 -736.3828125 576.28125 C-737.581646 579.63523839 -738.85747431 582.81295063 -740.5078125 585.96875 C-743.13959076 591.01557184 -744.77739006 596.32746792 -746.234375 601.81640625 C-747.87000879 607.56728233 -750.09518637 613.12577843 -752.1953125 618.71875 C-753.09969655 621.14946505 -754.00334392 623.58045432 -754.90625 626.01171875 C-755.34291992 627.18653809 -755.77958984 628.36135742 -756.22949219 629.57177734 C-756.63071289 630.65152832 -757.03193359 631.7312793 -757.4453125 632.84375 C-757.93499512 634.15980225 -757.93499512 634.15980225 -758.43457031 635.50244141 C-761.68956618 644.29609105 -764.40365506 653.01255 -766.48828125 662.16015625 C-767.33577252 665.42213285 -768.44383749 668.44445477 -769.65795898 671.58178711 C-771.27674017 676.23233212 -772.29230283 681.04744074 -773.3828125 685.84375 C-773.64368652 686.9778833 -773.90456055 688.1120166 -774.17333984 689.28051758 C-776.11312006 697.90781276 -777.69816344 706.56098848 -778.97631836 715.31054688 C-779.77993807 720.61055383 -780.91884355 725.64550587 -782.3984375 730.80078125 C-784.93269972 740.03240203 -785.98736589 749.35015557 -787.0703125 758.84375 C-787.3761985 761.4316427 -787.68512381 764.0191617 -787.99407959 766.60668945 C-788.19614269 768.30807622 -788.39588621 770.00974006 -788.59332275 771.71166992 C-789.14325473 776.43606981 -789.77425618 781.137979 -790.46875 785.84375 C-793.38627306 807.8202615 -793.79810245 829.91837554 -793.76098633 852.05053711 C-793.75636396 855.02888124 -793.76327154 858.00681596 -793.78149414 860.98510742 C-793.94856943 888.58307574 -791.8179949 915.59458199 -788.19921875 942.96484375 C-787.6386383 947.24411169 -787.13520972 951.52679699 -786.66015625 955.81640625 C-786.52996094 956.98824463 -786.39976562 958.16008301 -786.265625 959.36743164 C-786.0178525 961.61745241 -785.77409695 963.86792069 -785.53515625 966.11889648 C-784.89854149 971.85973287 -783.98705093 977.28406955 -782.4453125 982.84375 C-780.23685466 991.31555175 -778.40115537 999.82062471 -776.6953125 1008.40625 C-769.88396012 1041.94421644 -760.49474116 1075.82117355 -746.6953125 1107.21875 C-743.93249177 1113.58973212 -741.40041996 1120.02930775 -738.98144531 1126.53857422 C-737.66204959 1130.01818768 -736.28109942 1133.24949488 -734.359375 1136.44140625 C-732.4453125 1139.84375 -732.4453125 1139.84375 -731.56640625 1143.06640625 C-729.94585042 1148.52660655 -727.20979818 1153.28530739 -724.5078125 1158.28125 C-721.0482934 1164.69896866 -717.80821781 1170.93616269 -715.4453125 1177.84375 C-714.7853125 1177.84375 -714.1253125 1177.84375 -713.4453125 1177.84375 C-713.2184375 1178.648125 -712.9915625 1179.4525 -712.7578125 1180.28125 C-711.68235232 1183.20035621 -710.54526451 1185.54673249 -709.0078125 1188.21875 C-707.34608175 1191.1097728 -705.97857424 1193.88244017 -704.8828125 1197.03125 C-703.5597077 1200.78255282 -701.88599717 1203.69447946 -699.4453125 1206.84375 C-698.7853125 1206.84375 -698.1253125 1206.84375 -697.4453125 1206.84375 C-697.17219238 1207.56812256 -696.89907227 1208.29249512 -696.61767578 1209.03881836 C-695.48153959 1211.75707508 -694.18328712 1214.18719983 -692.6875 1216.72265625 C-692.14778564 1217.63869629 -691.60807129 1218.55473633 -691.05200195 1219.49853516 C-690.48054443 1220.45808105 -689.90908691 1221.41762695 -689.3203125 1222.40625 C-688.73789795 1223.38899902 -688.1554834 1224.37174805 -687.55541992 1225.38427734 C-683.8563724 1231.58744528 -680.04759834 1237.66400556 -675.93359375 1243.6015625 C-674.58687973 1245.63047024 -673.47575862 1247.64072725 -672.4453125 1249.84375 C-671.7853125 1249.84375 -671.1253125 1249.84375 -670.4453125 1249.84375 C-670.17589844 1250.58882812 -669.90648437 1251.33390625 -669.62890625 1252.1015625 C-668.4894461 1254.74149987 -667.32123831 1256.51071564 -665.5078125 1258.71875 C-662.21805787 1262.82408964 -659.09757062 1267.02533511 -656.0078125 1271.28125 C-651.64228697 1277.26838343 -647.14443554 1283.11288338 -642.4453125 1288.84375 C-641.72730469 1289.72417969 -641.00929688 1290.60460938 -640.26953125 1291.51171875 C-638.75488143 1293.36644538 -637.23793162 1295.21929598 -635.71875 1297.0703125 C-634.24029425 1298.87392691 -632.76609411 1300.68104103 -631.296875 1302.4921875 C-619.7697196 1316.84280534 -619.7697196 1316.84280534 -607.11108398 1330.17700195 C-605.49332935 1331.795705 -604.02922638 1333.47337792 -602.5546875 1335.22265625 C-597.71170013 1340.79174111 -592.47386839 1345.96473623 -587.24829102 1351.17114258 C-585.5113765 1352.902697 -583.77987361 1354.63953359 -582.04882812 1356.37695312 C-576.89331736 1361.53551329 -571.73190316 1366.61668118 -566.1784668 1371.35131836 C-563.87340765 1373.33622138 -561.67968238 1375.42743429 -559.4753418 1377.52270508 C-553.67269723 1383.03089475 -547.69911575 1388.14728095 -541.35620117 1393.02148438 C-538.00214807 1395.60247551 -534.77429523 1398.25223523 -531.6328125 1401.09375 C-521.92811204 1409.86327024 -511.08635117 1417.26779312 -500.4453125 1424.84375 C-499.55972656 1425.47522949 -498.67414063 1426.10670898 -497.76171875 1426.75732422 C-484.08136735 1436.48153145 -470.11086843 1445.59729355 -455.80371094 1454.37109375 C-453.84111356 1455.59659969 -451.92447103 1456.8597687 -450.01953125 1458.171875 C-447.74989849 1459.64593088 -445.88386597 1460.55496432 -443.3203125 1461.34375 C-439.78049475 1462.57266786 -438.09954438 1464.18951812 -435.4453125 1466.84375 C-433.43944319 1467.70106429 -431.43132356 1468.39125906 -429.34765625 1469.03515625 C-427.4453125 1469.84375 -427.4453125 1469.84375 -426.09570312 1471.23925781 C-422.95549898 1474.29213084 -418.86026197 1476.01439632 -415.0078125 1478.03125 C-413.71907227 1478.72637695 -413.71907227 1478.72637695 -412.40429688 1479.43554688 C-411.57349609 1479.87318359 -410.74269531 1480.31082031 -409.88671875 1480.76171875 C-409.13076416 1481.16156982 -408.37480957 1481.5614209 -407.59594727 1481.97338867 C-405.21401415 1483.0938455 -405.21401415 1483.0938455 -401.4453125 1482.84375 C-401.4453125 1483.50375 -401.4453125 1484.16375 -401.4453125 1484.84375 C-400.25035156 1485.36324219 -399.05539062 1485.88273437 -397.82421875 1486.41796875 C-383.34565928 1492.75709819 -383.34565928 1492.75709819 -378.8203125 1495.46875 C-374.21309529 1498.17834111 -369.25923193 1499.86563972 -364.25097656 1501.67749023 C-360.08444627 1503.19344203 -356.19763158 1504.89261886 -352.296875 1506.98046875 C-349.27546575 1508.38918488 -346.07847497 1509.16669545 -342.875 1510.0625 C-340.58789544 1510.7979034 -338.67156988 1511.69285384 -336.5703125 1512.84375 C-333.47448182 1514.49175488 -330.58413672 1515.36107702 -327.1640625 1516.1171875 C-322.33856961 1517.28430384 -317.68803299 1518.73523847 -313.03125 1520.4453125 C-312.05273071 1520.80463615 -312.05273071 1520.80463615 -311.05444336 1521.17121887 C-309.68640782 1521.67522384 -308.31863605 1522.17994525 -306.95111084 1522.68533325 C-294.22564536 1527.36402227 -281.4359283 1531.46765887 -268.3203125 1534.90625 C-267.63459167 1535.08770569 -266.94887085 1535.26916138 -266.24237061 1535.45611572 C-252.68814997 1539.01953441 -238.97496476 1541.50939371 -225.14648438 1543.74804688 C-222.32147215 1544.22827213 -219.71524054 1544.73028271 -217.06640625 1545.84375 C-213.05938773 1547.37250818 -208.93419755 1547.73978658 -204.6953125 1548.28125 C-199.01516697 1549.0208067 -193.37943554 1549.84308467 -187.75050354 1550.91265869 C-176.48268176 1553.02585336 -165.18079557 1554.13433364 -153.7578125 1555.03125 C-152.66859497 1555.11713379 -151.57937744 1555.20301758 -150.45715332 1555.29150391 C-106.80127675 1558.61153262 -61.92033647 1559.19645468 -18.47802734 1553.36962891 C-14.45896916 1552.83402138 -10.43535923 1552.39890962 -6.40234375 1551.98046875 C-4.52905396 1551.78578003 -4.52905396 1551.78578003 -2.61791992 1551.5871582 C-1.44720947 1551.4655835 -0.27649902 1551.34400879 0.9296875 1551.21875 C7.50963789 1550.52736928 13.94002481 1549.63611771 20.41552734 1548.27197266 C23.57831157 1547.63883827 26.72601611 1547.40974802 29.9375 1547.1875 C32.84403129 1546.80574664 35.60445574 1546.06968281 38.43847656 1545.33447266 C41.13221586 1544.70982845 43.84692335 1544.38349928 46.59082031 1544.05908203 C57.38176887 1542.74204005 67.79992881 1540.18687948 78.3046875 1537.46875 C79.40582382 1537.18558426 79.40582382 1537.18558426 80.52920532 1536.896698 C89.77906326 1534.50726861 98.91911045 1531.86268474 108.02197266 1528.96435547 C111.56969888 1527.83898827 115.12986579 1526.77261533 118.7019043 1525.72802734 C127.77409759 1523.07050585 136.76734473 1520.18743146 145.7421875 1517.21875 C146.8763208 1516.8465332 148.0104541 1516.47431641 149.17895508 1516.09082031 C154.79331885 1514.21811725 160.24740242 1512.23074414 165.60302734 1509.70532227 C167.69828571 1508.78035769 169.80434132 1508.08001753 171.9921875 1507.40625 C176.28352229 1506.03810668 180.13880697 1504.10819211 184.1328125 1502.04296875 C187.52764474 1500.36197924 190.98636072 1499.11383241 194.5546875 1497.84375 C196.22374145 1497.18308281 197.8916291 1496.51936748 199.5546875 1495.84375 C199.5546875 1495.18375 199.5546875 1494.52375 199.5546875 1493.84375 C201.8646875 1493.51375 204.1746875 1493.18375 206.5546875 1492.84375 C206.5546875 1492.18375 206.5546875 1491.52375 206.5546875 1490.84375 C207.27454834 1490.72531738 207.99440918 1490.60688477 208.73608398 1490.48486328 C211.63268631 1489.82600856 213.9751386 1488.8640418 216.65234375 1487.5859375 C217.61358154 1487.12815918 218.57481934 1486.67038086 219.56518555 1486.19873047 C221.07592651 1485.46614014 221.07592651 1485.46614014 222.6171875 1484.71875 C223.64690674 1484.22391113 224.67662598 1483.72907227 225.73754883 1483.21923828 C232.13271008 1480.11435946 238.32116087 1476.86266174 244.34765625 1473.0859375 C246.44677242 1471.90448804 248.19990445 1471.28764014 250.5546875 1470.84375 C250.5546875 1470.18375 250.5546875 1469.52375 250.5546875 1468.84375 C251.28631104 1468.56176758 252.01793457 1468.27978516 252.77172852 1467.98925781 C274.44419148 1459.0685458 294.49411246 1444.63116618 313.59521484 1431.21777344 C315.66646591 1429.76536863 317.74508558 1428.32390729 319.82421875 1426.8828125 C328.39216141 1420.91945523 336.70743808 1414.72505123 344.85302734 1408.19824219 C346.57272903 1406.82938925 348.30520663 1405.47864556 350.04296875 1404.1328125 C361.49458733 1395.25430511 372.43929068 1385.85965174 383.1171875 1376.06640625 C385.19741475 1374.16953236 387.30025648 1372.30982057 389.4296875 1370.46875 C398.74906823 1362.33069923 407.66785957 1353.82761736 416.4296875 1345.09375 C417.22608643 1344.30194336 418.02248535 1343.51013672 418.84301758 1342.69433594 C423.61977481 1337.90505969 428.14845622 1332.97373062 432.5546875 1327.84375 C434.74412245 1325.39840707 436.94546374 1322.96438519 439.1484375 1320.53125 C444.68610015 1314.34632808 450.0939665 1308.06817673 455.3671875 1301.65625 C456.27839355 1300.54878418 456.27839355 1300.54878418 457.20800781 1299.41894531 C461.64451205 1294.00383486 465.9649973 1288.51565863 470.19921875 1282.94140625 C472.19276968 1280.31970495 474.21431303 1277.72275911 476.24536133 1275.13012695 C484.70472663 1264.282196 492.45337167 1252.90564463 499.65063477 1241.18383789 C501.45182732 1238.30492111 502.67223374 1236.76538584 505.5546875 1234.84375 C506.28426582 1233.19073398 507.00644454 1231.5336827 507.67480469 1229.85498047 C509.29337214 1226.1552694 511.53234254 1222.81693652 513.6796875 1219.40625 C517.47838636 1213.27935749 521.19318577 1207.11903689 524.7421875 1200.84375 C525.12842285 1200.16771729 525.5146582 1199.49168457 525.91259766 1198.79516602 C527.89701494 1195.52182301 527.89701494 1195.52182301 528.5546875 1191.84375 C529.2146875 1191.84375 529.8746875 1191.84375 530.5546875 1191.84375 C532.71666917 1187.50606898 532.71666917 1187.50606898 533.5546875 1182.84375 C534.2146875 1182.84375 534.8746875 1182.84375 535.5546875 1182.84375 C535.780354 1182.32675537 536.00602051 1181.80976074 536.23852539 1181.27709961 C539.03329749 1174.92648843 541.99057383 1168.66133213 544.9921875 1162.40625 C545.45689453 1161.43365234 545.92160156 1160.46105469 546.40039062 1159.45898438 C548.64321874 1154.77625957 550.91614399 1150.11457805 553.265625 1145.484375 C554.98648565 1142.05866646 556.49533527 1138.6629113 557.7421875 1135.03125 C561.22046051 1125.01086349 561.22046051 1125.01086349 563.5546875 1123.84375 C565.1000612 1120.10909689 566.37899405 1116.47344777 567.46508789 1112.58081055 C568.4481955 1109.20899156 569.55827813 1105.94755568 570.76953125 1102.65234375 C573.77110781 1094.33004071 576.53277631 1085.93535529 579.26635742 1077.52172852 C580.11527463 1074.91213023 580.97058595 1072.30468394 581.82617188 1069.69726562 C587.9247604 1053.08362976 587.9247604 1053.08362976 590.5546875 1035.84375 C591.2146875 1035.84375 591.8746875 1035.84375 592.5546875 1035.84375 C592.65265625 1035.20050781 592.750625 1034.55726563 592.8515625 1033.89453125 C593.6951028 1028.79692996 594.77353617 1023.9904809 596.4296875 1019.09375 C599.56392702 1009.24991625 600.92846378 999.02299743 602.5546875 988.84375 C602.81016357 987.25385254 602.81016357 987.25385254 603.07080078 985.63183594 C604.07990865 979.34703276 604.07990865 979.34703276 605.07226562 973.05957031 C605.86485109 968.01661771 606.71131223 962.99322189 607.65174866 957.97546387 C609.58425615 947.52263265 610.73295111 937.05216231 611.6796875 926.46875 C611.76528931 925.52809692 611.85089111 924.58744385 611.93908691 923.61828613 C613.77116609 903.17077502 614.36454653 882.75927396 614.53253174 862.23834229 C614.55359979 859.96130953 614.58314332 857.68459426 614.61669922 855.40771484 C614.89735432 836.13365267 614.14108738 817.0252773 612.82104492 797.80493164 C612.63643522 795.05947565 612.46045116 792.31485217 612.2980957 789.56811523 C612.23476295 788.50639099 612.23476295 788.50639099 612.17015076 787.42321777 C612.05444048 785.46770113 611.94096055 783.51205288 611.82763672 781.55639648 C611.25698632 773.79442808 610.31573596 766.05949348 608.57421875 758.46875 C607.53996359 753.93135706 606.83118233 749.3869696 606.1796875 744.78125 C605.9151347 742.99593454 605.64946388 741.21078448 605.3828125 739.42578125 C604.97436871 736.68220872 604.56829901 733.93848961 604.17382812 731.19287109 C600.18508549 703.72217781 593.39279522 676.52531542 585.21630859 650.0144043 C584.65121149 648.16042706 584.12080369 646.2959359 583.59765625 644.4296875 C582.12853149 639.37853943 580.46898753 634.39600694 578.8046875 629.40625 C578.45051758 628.3430957 578.09634766 627.27994141 577.73144531 626.18457031 C575.47497359 619.45991832 573.10660715 612.794384 570.56787109 606.17163086 C569.08610965 602.29975042 567.71666851 598.40950582 566.4296875 594.46875 C562.69287243 583.12103404 557.58300623 572.67905127 552.1328125 562.078125 C550.14538342 558.17687533 548.30530316 554.31003534 546.7421875 550.21875 C544.14273651 543.52542679 540.80365002 537.19823872 537.54638672 530.80810547 C535.6057756 526.96414756 533.7465808 523.07905843 531.87890625 519.19921875 C530.71662404 516.8599908 530.71662404 516.8599908 529.08813477 515.4543457 C527.34909823 513.62781744 526.63280577 512.05150919 525.6953125 509.71875 C523.61076196 504.83246897 521.06904221 500.37335132 518.3046875 495.84375 C517.79091553 494.99635254 517.27714355 494.14895508 516.74780273 493.27587891 C506.00481228 475.66176141 494.90099752 458.37933361 482.5546875 441.84375 C481.49073738 440.40766174 480.4269356 438.97146358 479.36328125 437.53515625 C473.90231929 430.18640207 468.32359989 422.95426992 462.5546875 415.84375 C461.28364333 414.23975039 460.012816 412.63557892 458.7421875 411.03125 C453.80617785 404.86123793 448.68812747 398.84948879 443.5546875 392.84375 C442.91402344 392.08835937 442.27335937 391.33296875 441.61328125 390.5546875 C437.92613968 386.26015137 434.02351871 382.25381013 429.9609375 378.3125 C428.06633426 376.36868629 426.31056472 374.40847296 424.55078125 372.34765625 C419.8808981 366.96820159 414.82875045 361.96813672 409.78491211 356.94360352 C408.12042473 355.2844768 406.46135303 353.62006949 404.80273438 351.95507812 C399.7580067 346.90719269 394.68705992 341.93688594 389.25610352 337.30004883 C386.68144073 335.09630891 384.22201308 332.77862949 381.7421875 330.46875 C376.20148999 325.35141635 370.43366609 320.56898965 364.5546875 315.84375 C362.76234884 314.36539767 360.97068814 312.88622303 359.1796875 311.40625 C354.23597498 307.36329866 349.20472015 303.44420037 344.125 299.57421875 C341.58346128 297.63777435 339.06138681 295.67843252 336.546875 293.70703125 C328.6010248 287.5086776 320.55201833 281.69610606 311.99902344 276.35766602 C311.3290332 275.93799561 310.65904297 275.5183252 309.96875 275.0859375 C309.08630615 274.54235596 309.08630615 274.54235596 308.18603516 273.98779297 C306.43394331 272.75907367 305.06377912 271.35676325 303.5546875 269.84375 C300.99267826 267.9879234 298.29587474 266.33815785 295.6171875 264.65625 C294.80902588 264.14739258 294.00086426 263.63853516 293.16821289 263.11425781 C285.37808147 258.26462874 277.45059654 253.65965296 269.4921875 249.09375 C268.86442413 248.73205719 268.23666077 248.37036438 267.58987427 247.99771118 C265.79843043 246.96736642 264.00348011 245.94346291 262.20703125 244.921875 C261.16538818 244.32793945 260.12374512 243.73400391 259.05053711 243.12207031 C256.725366 241.6917953 256.725366 241.6917953 254.5546875 241.84375 C254.5546875 241.18375 254.5546875 240.52375 254.5546875 239.84375 C253.5440625 239.451875 252.5334375 239.06 251.4921875 238.65625 C248.77854109 237.50566392 246.57290959 236.20423561 244.2421875 234.40625 C241.63824145 232.46616712 239.22284145 231.22141618 236.1796875 230.09375 C231.28404825 228.2681311 226.81812703 225.90175572 222.2421875 223.40625 C216.04705706 220.03965868 209.95406559 217.2450869 203.2890625 214.9140625 C200.484004 213.81608246 198.12914717 212.39659869 195.5546875 210.84375 C193.86318841 210.17452762 192.15334284 209.5501621 190.4296875 208.96875 C186.6396296 207.63642605 183.00186061 206.17918441 179.3671875 204.46875 C172.88989447 201.45648534 166.21809253 199.03664247 159.51953125 196.57128906 C156.56397792 195.47691171 153.62142809 194.34965499 150.6796875 193.21875 C149.73351563 192.85523438 148.78734375 192.49171875 147.8125 192.1171875 C146.00390937 191.41023241 144.1990273 190.69260353 142.41186523 189.93310547 C135.54363137 187.0580954 128.56791111 185.08392311 121.3671875 183.21875 C119.10276311 182.62278124 116.8384373 182.02643781 114.57421875 181.4296875 C112.99954834 181.01928223 112.99954834 181.01928223 111.39306641 180.60058594 C109.08132929 179.98417573 106.79307585 179.32657415 104.50390625 178.6328125 C101.41949786 177.67144405 101.41949786 177.67144405 97.5546875 177.84375 C97.5546875 177.18375 97.5546875 176.52375 97.5546875 175.84375 C96.42933594 175.67939453 96.42933594 175.67939453 95.28125 175.51171875 C89.23503386 174.57508829 83.5126041 173.38291525 77.7109375 171.4296875 C75.28375773 170.66893017 75.28375773 170.66893017 71.5546875 170.84375 C71.5546875 170.18375 71.5546875 169.52375 71.5546875 168.84375 C62.0433871 167.24958968 52.53087332 165.66296388 43.01673889 164.08580017 C38.32447645 163.30706529 33.63387471 162.51942064 28.94485474 161.72140503 C15.16883555 159.38155612 1.55562162 157.07259142 -12.4453125 156.84375 C-12.4453125 156.18375 -12.4453125 155.52375 -12.4453125 154.84375 C-42.82214783 152.02613594 -72.94980799 150.44601649 -103.4453125 150.53125 C-104.16889072 150.53263977 -104.89246895 150.53402954 -105.63797379 150.53546143 C-110.51140246 150.54517601 -115.38449839 150.57027639 -120.2578125 150.60546875 C-122.0783741 150.61679085 -122.0783741 150.61679085 -123.93571472 150.62834167 C-138.04627965 150.00278978 -138.04627965 150.00278978 -151.4453125 152.84375 Z " fill="#FEFEFE" transform="translate(1120.4453125,159.15625)"/>
<path d="M0 0 C4.08187671 0.57289498 5.68033728 1.61783728 8.5625 4.5 C10.0408226 7.45664519 9.62282783 10.24229737 9.5625 13.5 C8.9025 13.5 8.2425 13.5 7.5625 13.5 C7.19125 14.3353125 7.19125 14.3353125 6.8125 15.1875 C5.33442069 17.92194672 3.55299324 20.11140812 1.5625 22.5 C0.37333984 23.93859375 0.37333984 23.93859375 -0.83984375 25.40625 C-2.62775249 27.54597968 -4.43591409 29.66704348 -6.25390625 31.78125 C-6.71216797 32.31878906 -7.17042969 32.85632813 -7.64257812 33.41015625 C-8.94442698 34.93491161 -10.25522584 36.45201163 -11.56640625 37.96875 C-13.73471298 40.37745313 -13.73471298 40.37745313 -13.4375 43.5 C-11.80124349 45.02342029 -11.80124349 45.02342029 -9.59765625 46.390625 C-8.78103516 46.93589844 -7.96441406 47.48117187 -7.12304688 48.04296875 C-6.25744141 48.60628906 -5.39183594 49.16960938 -4.5 49.75 C1.39740912 53.63890438 7.12736549 57.60606831 12.65454102 62.01074219 C14.23687288 63.24583168 15.89233231 64.38655487 17.5625 65.5 C17.97093923 68.21203652 17.69586867 70.7437142 17.5625 73.5 C16.9025 73.5 16.2425 73.5 15.5625 73.5 C15.0675 74.985 15.0675 74.985 14.5625 76.5 C11.06780474 78.24734763 7.38011699 77.99934087 3.5625 77.5 C0.83374608 76.36170807 -1.39373555 74.77048116 -3.75 73 C-5.04413265 72.08313825 -6.33840552 71.1664744 -7.6328125 70.25 C-8.58655762 69.55777344 -8.58655762 69.55777344 -9.55957031 68.8515625 C-12.36900729 66.82958602 -15.24273019 64.91681513 -18.125 63 C-19.05699219 62.3709375 -19.98898437 61.741875 -20.94921875 61.09375 C-23.06966134 59.73560153 -25.16016395 58.56666794 -27.4375 57.5 C-39.32007048 71.11626172 -39.32007048 71.11626172 -50.70507812 85.14282227 C-53.16266868 88.26918604 -54.09242946 89.41075762 -58.0625 90.4375 C-61.4375 90.5 -61.4375 90.5 -64.4375 89.5 C-67.57416564 85.55012476 -67.96936477 82.46407116 -67.4375 77.5 C-65.60797794 73.30286115 -62.42391933 70.12511022 -59.3984375 66.7421875 C-56.60824245 63.55180512 -53.99887218 60.2267652 -51.37109375 56.90234375 C-49.61128032 54.71590888 -47.79554231 52.60286671 -45.9375 50.5 C-43.2241052 47.89478038 -43.2241052 47.89478038 -43.4375 45.5 C-45.29373118 44.09502925 -47.21900632 42.78102987 -49.16796875 41.5078125 C-49.75540359 41.12060028 -50.34283844 40.73338806 -50.94807434 40.33444214 C-52.83615384 39.09137583 -54.73019613 37.85778711 -56.625 36.625 C-58.50091221 35.39785784 -60.37547616 34.1687293 -62.24836731 32.9369812 C-63.9601011 31.81226188 -65.67563644 30.69333459 -67.39135742 29.57470703 C-75.04239455 24.36363758 -75.04239455 24.36363758 -76.3203125 21.5703125 C-76.8320906 17.45957876 -76.59210937 15.78860416 -74.5625 12 C-72.72795069 10.07710129 -71.74669036 9.54852069 -69.09765625 9.1328125 C-66.84500857 9.12569513 -64.6736293 9.23692597 -62.4375 9.5 C-62.4375 10.16 -62.4375 10.82 -62.4375 11.5 C-61.72271484 11.75523437 -61.00792969 12.01046875 -60.27148438 12.2734375 C-57.22295079 13.59285796 -54.79499949 15.19471211 -52.09375 17.125 C-50.59521484 18.18460938 -50.59521484 18.18460938 -49.06640625 19.265625 C-46.98046875 20.75520833 -44.89453125 22.24479167 -42.80859375 23.734375 C-41.31005859 24.79398438 -41.31005859 24.79398438 -39.78125 25.875 C-38.87568359 26.52210938 -37.97011719 27.16921875 -37.03710938 27.8359375 C-34.55688771 29.42357752 -32.20383635 30.51220091 -29.4375 31.5 C-28.695 30.489375 -27.9525 29.47875 -27.1875 28.4375 C-23.910198 24.08089421 -20.56241412 19.78117841 -17.1875 15.5 C-16.65608398 14.81671631 -16.12466797 14.13343262 -15.57714844 13.42944336 C-14.2438108 11.74830626 -12.84566878 10.11897249 -11.4375 8.5 C-10.7775 8.5 -10.1175 8.5 -9.4375 8.5 C-9.19 7.9225 -8.9425 7.345 -8.6875 6.75 C-6.38373843 2.60322917 -4.82726897 0.70214821 0 0 Z " fill="#F7F7F7" transform="translate(1634.4375,850.5)"/>
<path d="M0 0 C9.09618912 6.07819598 13.23804624 14.36889151 16.4375 24.5625 C16.80359375 25.64660156 17.1696875 26.73070312 17.546875 27.84765625 C18.64360182 32.42216155 18.82133165 36.68671906 18.8125 41.375 C18.81008301 42.70349976 18.81008301 42.70349976 18.80761719 44.05883789 C18.64331845 52.80774548 16.80673564 60.19326436 10.4375 66.5625 C5.73400058 69.45854113 0.78693285 69.17074455 -4.5625 68.5625 C-13.34630321 64.50843698 -18.19178761 56.28674064 -21.49609375 47.5625 C-21.84800781 46.5725 -22.19992187 45.5825 -22.5625 44.5625 C-22.88347656 43.7375 -23.20445312 42.9125 -23.53515625 42.0625 C-26.05591891 34.93401769 -25.88978437 28.04697676 -25.5625 20.5625 C-25.55476562 19.63824219 -25.54703125 18.71398437 -25.5390625 17.76171875 C-25.27038632 11.11715024 -23.00420139 6.50467478 -18.5625 1.5625 C-12.78852435 -2.67174881 -6.45671936 -2.6053429 0 0 Z " fill="#FCFCFC" transform="translate(757.5625,855.4375)"/>
<path d="M0 0 C5.2784652 1.72321029 9.09903655 4.16506092 12 9 C14.99228122 15.80162296 15.43390945 22.08008753 15.3125 29.4375 C15.31572266 30.41009766 15.31894531 31.38269531 15.32226562 32.38476562 C15.27512371 38.80035121 14.49362092 44.76304258 13 51 C12.34 51 11.68 51 11 51 C10.773125 52.010625 10.54625 53.02125 10.3125 54.0625 C8.66396587 59.75743609 5.58918581 63.6813139 1.0625 67.4375 C-3.63818848 69.83581045 -6.44975486 69.4509804 -11.4375 68 C-18.28814879 64.69592603 -21.98650489 58.95390502 -24.4375 51.9375 C-27.9747015 38.73398061 -26.98637646 23.38939523 -20.8125 11.0625 C-15.64542576 2.85054273 -10.01513479 -2.00302696 0 0 Z " fill="#F8F8F8" transform="translate(529,868)"/>
<path d="M0 0 C0.99 0.495 0.99 0.495 2 1 C2.89896566 15.41314312 3.15692776 29.77932002 3.13037109 44.21899414 C3.12499061 47.69356616 3.13036358 51.16800989 3.13671875 54.64257812 C3.13996177 66.7983858 2.93013133 78.8775708 2 91 C1.34 91 0.68 91 0 91 C0 60.97 0 30.94 0 0 Z " fill="#A8A8A8" transform="translate(1734,968)"/>
<path d="M0 0 C1.40884938 -0.00323395 2.81769846 -0.00659937 4.22654724 -0.01008606 C7.16528089 -0.0160193 10.10398542 -0.01793246 13.04272461 -0.01733398 C15.98484548 -0.01725349 18.9268081 -0.02408294 21.86889648 -0.0378418 C41.98343203 -0.13058187 61.87992241 0.52710671 81.93359375 2.16796875 C81.93359375 2.49796875 81.93359375 2.82796875 81.93359375 3.16796875 C73.63333439 3.272011 65.36608949 3.21546661 57.07397461 2.80981445 C41.88347373 2.0801178 26.7011805 2.05431689 11.49609375 2.04296875 C10.30970306 2.04047119 9.12331238 2.03797363 7.90097046 2.03540039 C4.49645048 2.02951566 1.09202097 2.03099917 -2.3125 2.03515625 C-3.35201813 2.0331723 -4.39153625 2.03118835 -5.46255493 2.02914429 C-6.42035858 2.03225616 -7.37816223 2.03536804 -8.36499023 2.03857422 C-9.62302711 2.03976761 -9.62302711 2.03976761 -10.90647888 2.04098511 C-13.25043986 2.08486603 -13.25043986 2.08486603 -16.06640625 3.16796875 C-25.00994078 4.49233127 -34.05319278 4.26974908 -43.06640625 4.16796875 C-43.06640625 3.83796875 -43.06640625 3.50796875 -43.06640625 3.16796875 C-42.29554688 3.10738281 -41.5246875 3.04679687 -40.73046875 2.984375 C-39.72757813 2.90058594 -38.7246875 2.81679688 -37.69140625 2.73046875 C-36.69367187 2.64925781 -35.6959375 2.56804687 -34.66796875 2.484375 C-32.08713012 2.31831249 -32.08713012 2.31831249 -30.06640625 1.16796875 C-20.07850597 0.11558466 -10.0337629 0.00862883 0 0 Z " fill="#7E7E7E" transform="translate(1001.06640625,309.83203125)"/>
<path d="M0 0 C0.66 0.33 1.32 0.66 2 1 C-5.59 8.59 -13.18 16.18 -21 24 C-21.66 23.67 -22.32 23.34 -23 23 C-18.51405813 17.54854083 -13.6741214 12.78573366 -8.37890625 8.12109375 C-5.46322192 5.52139491 -2.72534002 2.79705949 0 0 Z " fill="#2F2F2F" transform="translate(1191,793)"/>
<path d="M0 0 C-1.53218685 3.63061667 -3.7183144 5.9863773 -6.5 8.75 C-7.69109375 9.94882812 -7.69109375 9.94882812 -8.90625 11.171875 C-11 13 -11 13 -13 13 C-11.46781315 9.36938333 -9.2816856 7.0136227 -6.5 4.25 C-5.7059375 3.45078125 -4.911875 2.6515625 -4.09375 1.828125 C-2 0 -2 0 0 0 Z " fill="#2C2C2C" transform="translate(811,627)"/>
<path d="M0 0 C0 0.33 0 0.66 0 1 C-1.98 1 -3.96 1 -6 1 C-6.20625 1.53625 -6.4125 2.0725 -6.625 2.625 C-8.53250426 5.91978009 -11.04819384 8.59363628 -14 11 C-14.66 11 -15.32 11 -16 11 C-15.67 10.01 -15.34 9.02 -15 8 C-14.34 8 -13.68 8 -13 8 C-12.7525 7.4225 -12.505 6.845 -12.25 6.25 C-9.06067749 0.50921949 -6.55091199 -0.50391631 0 0 Z " fill="#B8B8B8" transform="translate(1638,851)"/>
<path d="M0 0 C-7.50216736 3.0517291 -13.94635715 3.33608711 -22 3 C-22 2.67 -22 2.34 -22 2 C-19.08483516 1.46915208 -16.16839443 0.95000945 -13.25 0.4375 C-12.425 0.28603516 -11.6 0.13457031 -10.75 -0.02148438 C-9.95078125 -0.16005859 -9.1515625 -0.29863281 -8.328125 -0.44140625 C-7.5949707 -0.57232666 -6.86181641 -0.70324707 -6.10644531 -0.83813477 C-3.83766713 -1.01247412 -2.16221421 -0.66874807 0 0 Z " fill="#969696" transform="translate(1147,1707)"/>
<path d="M0 0 C0.66 0.33 1.32 0.66 2 1 C-2.29 5.29 -6.58 9.58 -11 14 C-11 9.82308582 -8.77013484 7.86318847 -6 5 C-4.05228995 3.24842937 -2.05675499 1.62627139 0 0 Z " fill="#3D3D3D" transform="translate(442,633)"/>
<path d="M0 0 C-1.49097658 3.7952131 -3.75700849 5.61042731 -7 8 C-7 5 -7 5 -4.625 2.3125 C-2 0 -2 0 0 0 Z " fill="#CCCCCC" transform="translate(518,870)"/>
<path d="M0 0 C0.66 0.33 1.32 0.66 2 1 C-0.64 3.64 -3.28 6.28 -6 9 C-6 5.06368636 -4.57142871 3.87394974 -2 1 C-1.34 0.67 -0.68 0.34 0 0 Z " fill="#D9D9D9" transform="translate(742,855)"/>
<path d="M0 0 C0.66 0.33 1.32 0.66 2 1 C-0.75 3.0625 -0.75 3.0625 -4 5 C-6.203125 4.62109375 -6.203125 4.62109375 -8 4 C-6.71349294 3.30289269 -5.42059335 2.61757124 -4.125 1.9375 C-3.40570312 1.55464844 -2.68640625 1.17179687 -1.9453125 0.77734375 C-1.30335937 0.52082031 -0.66140625 0.26429687 0 0 Z " fill="#989898" transform="translate(1307,1659)"/>
<path d="M0 0 C0.66 0.33 1.32 0.66 2 1 C0.02 3.31 -1.96 5.62 -4 8 C-4.66 7.67 -5.32 7.34 -6 7 C-4.02 4.69 -2.04 2.38 0 0 Z " fill="#383838" transform="translate(1607,907)"/>
</svg>
